<svg width="12" height="12" viewBox="0 0 12 12" fill="none" xmlns="http://www.w3.org/2000/svg">
<path d="M5.41522 1.53315C5.69033 0.975715 6.48521 0.975715 6.76032 1.53315L7.82357 3.68752C7.93281 3.90888 8.14399 4.06231 8.38827 4.0978L10.7658 4.44327C11.3809 4.53266 11.6266 5.28864 11.1814 5.72254L9.46105 7.39949C9.28429 7.57179 9.20363 7.82004 9.24536 8.06334L9.65148 10.4312C9.75656 11.0439 9.11349 11.5111 8.56327 11.2219L6.43677 10.1039C6.21828 9.98902 5.95726 9.98902 5.73876 10.1039L3.61227 11.2219C3.06205 11.5111 2.41897 11.0439 2.52406 10.4312L2.93018 8.06334C2.97191 7.82004 2.89125 7.57179 2.71448 7.39949L0.994113 5.72254C0.548975 5.28864 0.794608 4.53266 1.40977 4.44327L3.78727 4.0978C4.03155 4.06231 4.24272 3.90888 4.35197 3.68752L5.41522 1.53315Z" stroke="#858585"/>
</svg>
