<svg width="12" height="11" viewBox="0 0 12 11" fill="none" xmlns="http://www.w3.org/2000/svg">
<path d="M5.06268 0.533149C5.33779 -0.0242853 6.13267 -0.0242847 6.40778 0.53315L7.47103 2.68752C7.58028 2.90888 7.79145 3.06231 8.03573 3.0978L10.4132 3.44327C11.0284 3.53266 11.274 4.28864 10.8289 4.72254L9.10851 6.39949C8.93175 6.57179 8.85109 6.82004 8.89282 7.06334L9.29894 9.43122C9.40402 10.0439 8.76095 10.5111 8.21073 10.2219L6.08424 9.10389C5.86574 8.98903 5.60472 8.98903 5.38622 9.10389L3.25973 10.2219C2.70951 10.5111 2.06643 10.0439 2.17152 9.43122L2.57764 7.06334C2.61937 6.82004 2.53871 6.57179 2.36194 6.39949L0.641574 4.72254C0.196436 4.28864 0.442069 3.53266 1.05723 3.44327L3.43473 3.0978C3.67901 3.06231 3.89018 2.90888 3.99943 2.68752L5.06268 0.533149Z" fill="#FFE499"/>
</svg>
