<svg width="19" height="17" viewBox="0 0 19 17" fill="none" xmlns="http://www.w3.org/2000/svg">
<path fill-rule="evenodd" clip-rule="evenodd" d="M5.80132 7.2692C4.63264 9.15734 6.02413 11.5675 8.24365 11.4994C9.43933 11.4628 10.6435 11.1384 11.752 10.4984C13.8094 9.31058 15.0899 7.29392 15.4153 5.11369C15.4704 4.74458 15.2646 4.38812 14.9173 4.25127C12.8665 3.44296 10.4798 3.54359 8.42239 4.73142C7.31388 5.37142 6.43089 6.25203 5.80132 7.2692ZM11.9687 6.54192C12.255 7.03785 12.8892 7.20777 13.3851 6.92144C13.8811 6.63511 14.051 6.00096 13.7647 5.50502C13.4783 5.00909 12.8442 4.83917 12.3482 5.1255C11.8523 5.41182 11.6824 6.04598 11.9687 6.54192Z" fill="#C0B9DB"/>
<path fill-rule="evenodd" clip-rule="evenodd" d="M10.0013 13.6904C10.0016 13.6902 10.002 13.69 10.0024 13.6898C12.4931 12.2518 13.3464 9.06694 11.9084 6.57623C10.4704 4.08553 7.28557 3.23214 4.79486 4.67016C4.7945 4.67037 4.79413 4.67058 4.79377 4.67079L10.0013 13.6904Z" fill="#C0B9DB"/>
<path d="M4.03637 10.0588C4.47355 9.80635 5.02808 9.94837 5.28303 10.39C5.53798 10.8315 5.38371 11.3828 4.94653 11.6352C4.36828 11.969 3.26758 11.5536 3.26758 11.5536C3.26758 11.5536 3.44127 10.4023 4.03637 10.0588Z" fill="#C0B9DB"/>
</svg>
