<svg width="17" height="13" viewBox="0 0 17 13" fill="none" xmlns="http://www.w3.org/2000/svg">
<path d="M7.13421 11L7.93206 7.96913C7.9855 7.83617 8.01604 7.69539 8.01604 7.54679C8.01604 7.21851 8.28217 6.95239 8.61045 6.95239L12.597 6.95239C13.2307 6.95239 13.7422 6.42838 13.7422 5.77923C13.7422 5.13008 13.2307 4.60607 12.597 4.60607L5.69351 4.60607C5.03809 4.60607 4.56036 3.98437 4.72692 3.35046C5.26542 1.30106 5.25986 1.32245 5.25986 1.23573C5.25986 0.993276 5.16061 0.774286 5.00791 0.617864C4.67477 0.280862 4.12804 0.289078 3.80517 0.63594L0.335377 4.36361C0.129235 4.57478 -0.000558112 4.87198 -0.000558126 5.19265L-0.000558359 10.5032C-0.000558384 11.0897 0.41936 11.5434 0.976704 11.6294L5.00027 12.216C5.05372 12.2238 5.10716 12.2316 5.15297 12.2316C5.62633 12.2316 6.63421 12.5 7.13421 11Z" fill="white"/>
<path d="M10.5975 2.09687C9.92441 2.51901 10.3444 3.38357 11.139 3.38357L12.7899 3.38357C14.081 3.38357 15.1289 4.45697 15.1289 5.77954C15.1289 7.10212 14.081 8.17551 12.7899 8.17551L11.139 8.17551C10.3444 8.17551 9.92441 9.04007 10.5975 9.46222C11.2358 9.8625 11.9859 10.0923 12.7899 10.0923C15.1195 10.0923 17 8.16593 17 5.77954C17 3.39316 15.1195 1.4668 12.7899 1.4668C11.9859 1.4668 11.2358 1.69658 10.5975 2.09687Z" fill="#8B6193"/>
</svg>
