<svg width="40" height="40" viewBox="0 0 40 40" fill="none" xmlns="http://www.w3.org/2000/svg">
<g filter="url(#filter0_d_40002183_11775)">
<rect x="4" y="4" width="32" height="32" rx="16" fill="white" shape-rendering="crispEdges"/>
<path d="M27 20L26.3747 15.1685C26.3102 14.67 25.8857 14.2969 25.383 14.2969H14.249C13.7209 14.2969 13.2839 14.7075 13.2509 15.2345L12.5664 26.1869C12.5304 26.7626 12.9876 27.2493 13.5645 27.2493H19" stroke="#17151C"/>
<path d="M16.2388 14.2976C16.2388 13.3567 16.6125 12.4544 17.2778 11.7891C17.9432 11.1238 18.8455 10.75 19.7864 10.75C20.7273 10.75 21.6296 11.1238 22.2949 11.7891C22.9603 12.4544 23.334 13.3567 23.334 14.2976" stroke="#17151C"/>
<path d="M24 20.75V27.75" stroke="#17151C" stroke-linecap="round"/>
<path d="M27.5 24.25L20.5 24.25" stroke="#17151C" stroke-linecap="round"/>
</g>
<defs>
<filter id="filter0_d_40002183_11775" x="0" y="0" width="40" height="40" filterUnits="userSpaceOnUse" color-interpolation-filters="sRGB">
<feFlood flood-opacity="0" result="BackgroundImageFix"/>
<feColorMatrix in="SourceAlpha" type="matrix" values="0 0 0 0 0 0 0 0 0 0 0 0 0 0 0 0 0 0 127 0" result="hardAlpha"/>
<feOffset/>
<feGaussianBlur stdDeviation="2"/>
<feComposite in2="hardAlpha" operator="out"/>
<feColorMatrix type="matrix" values="0 0 0 0 0 0 0 0 0 0 0 0 0 0 0 0 0 0 0.25 0"/>
<feBlend mode="normal" in2="BackgroundImageFix" result="effect1_dropShadow_40002183_11775"/>
<feBlend mode="normal" in="SourceGraphic" in2="effect1_dropShadow_40002183_11775" result="shape"/>
</filter>
</defs>
</svg>
