<svg width="12" height="14" viewBox="0 0 12 14" fill="none" xmlns="http://www.w3.org/2000/svg">
<path d="M4.5 0C4.08579 0 3.75 0.335786 3.75 0.75H0.5C0.223858 0.75 0 0.973858 0 1.25V1.75C0 2.02614 0.223858 2.25 0.5 2.25C0.638071 2.25 0.75 2.36193 0.75 2.5V12C0.75 12.3978 0.908035 12.7794 1.18934 13.0607C1.47064 13.342 1.85218 13.5 2.25 13.5H9.75C10.1478 13.5 10.5294 13.342 10.8107 13.0607C11.092 12.7794 11.25 12.3978 11.25 12V2.5C11.25 2.36193 11.3619 2.25 11.5 2.25C11.7761 2.25 12 2.02614 12 1.75V1.25C12 0.973858 11.7761 0.75 11.5 0.75H8.25C8.25 0.335786 7.91421 0 7.5 0H4.5ZM2.25 2.25H9.75V12H2.25V2.25ZM4.5 3.75C4.08579 3.75 3.75 4.08579 3.75 4.5V9.75C3.75 10.1642 4.08579 10.5 4.5 10.5C4.91421 10.5 5.25 10.1642 5.25 9.75V4.5C5.25 4.08579 4.91421 3.75 4.5 3.75ZM7.5 3.75C7.08579 3.75 6.75 4.08579 6.75 4.5V9.75C6.75 10.1642 7.08579 10.5 7.5 10.5C7.91421 10.5 8.25 10.1642 8.25 9.75V4.5C8.25 4.08579 7.91421 3.75 7.5 3.75Z" fill="#FF2C2C"/>
</svg>
