<svg width="40" height="40" viewBox="0 0 40 40" fill="none" xmlns="http://www.w3.org/2000/svg">
<g filter="url(#filter0_d_40002183_11784)">
<rect x="4" y="4" width="32" height="32" rx="16" fill="white" shape-rendering="crispEdges"/>
<path d="M26.6671 21.0913L21.3559 26.4458C21.0037 26.8007 20.5262 27 20.0283 27C19.5304 27 19.0529 26.8007 18.7007 26.4458L13.3895 21.0923C12.9505 20.6536 12.6017 20.1318 12.3633 19.5569C12.1248 18.982 12.0014 18.3653 12 17.7422C11.9987 17.119 12.1194 16.5018 12.3554 15.9258C12.5913 15.3498 12.9378 14.8265 13.3749 14.3859C13.8121 13.9453 14.3313 13.596 14.9027 13.3582C15.4741 13.1204 16.0864 12.9986 16.7047 13C17.3229 13.0014 17.9347 13.1258 18.5051 13.3662C19.0754 13.6065 19.5931 13.958 20.0283 14.4006C20.9123 13.5317 22.1003 13.0489 23.335 13.0567C24.5697 13.0645 25.7517 13.5623 26.6248 14.4423C27.498 15.3222 27.992 16.5135 27.9999 17.7581C28.0078 19.0026 27.529 20.2002 26.6671 21.0913Z" stroke="black" stroke-linecap="round" stroke-linejoin="round"/>
</g>
<defs>
<filter id="filter0_d_40002183_11784" x="0" y="0" width="40" height="40" filterUnits="userSpaceOnUse" color-interpolation-filters="sRGB">
<feFlood flood-opacity="0" result="BackgroundImageFix"/>
<feColorMatrix in="SourceAlpha" type="matrix" values="0 0 0 0 0 0 0 0 0 0 0 0 0 0 0 0 0 0 127 0" result="hardAlpha"/>
<feOffset/>
<feGaussianBlur stdDeviation="2"/>
<feComposite in2="hardAlpha" operator="out"/>
<feColorMatrix type="matrix" values="0 0 0 0 0 0 0 0 0 0 0 0 0 0 0 0 0 0 0.25 0"/>
<feBlend mode="normal" in2="BackgroundImageFix" result="effect1_dropShadow_40002183_11784"/>
<feBlend mode="normal" in="SourceGraphic" in2="effect1_dropShadow_40002183_11784" result="shape"/>
</filter>
</defs>
</svg>
