<svg width="15" height="17" viewBox="0 0 15 17" fill="none" xmlns="http://www.w3.org/2000/svg">
<path d="M6.66667 17C6.43056 17 6.23278 16.9258 6.07333 16.7775C5.91333 16.6296 5.83333 16.4462 5.83333 16.2273V15.4545H1.66667C1.20833 15.4545 0.815833 15.3033 0.489167 15.001C0.163055 14.698 0 14.3341 0 13.9091V3.09091C0 2.66591 0.163055 2.30195 0.489167 1.99905C0.815833 1.69665 1.20833 1.54545 1.66667 1.54545H5.83333V0.772727C5.83333 0.553788 5.91333 0.370136 6.07333 0.221773C6.23278 0.0739242 6.43056 0 6.66667 0C6.90278 0 7.10083 0.0739242 7.26083 0.221773C7.42028 0.370136 7.5 0.553788 7.5 0.772727V16.2273C7.5 16.4462 7.42028 16.6296 7.26083 16.7775C7.10083 16.9258 6.90278 17 6.66667 17ZM1.66667 13.1364H5.83333V8.5L1.66667 13.1364ZM9.16667 15.4545V8.5L13.3333 13.1364V3.09091H9.16667V1.54545H13.3333C13.7917 1.54545 14.1842 1.69665 14.5108 1.99905C14.8369 2.30195 15 2.66591 15 3.09091V13.9091C15 14.3341 14.8369 14.698 14.5108 15.001C14.1842 15.3033 13.7917 15.4545 13.3333 15.4545H9.16667Z" fill="#FFFFFF"/>
</svg>
