<svg width="21" height="17" viewBox="0 0 21 17" fill="none" xmlns="http://www.w3.org/2000/svg">
<mask id="path-1-inside-1_40002817_42843" fill="white">
<path d="M20.5954 3.97468C21.0481 4.44 21.0481 5.1811 20.5954 5.64642L17.0684 9.2721C16.8507 9.49589 16.7289 9.79577 16.7289 10.108V15.8013C16.7289 16.4633 16.1922 17 15.5301 17H5.46961C4.80757 17 4.27087 16.4633 4.27087 15.8013V10.108C4.27087 9.79577 4.14907 9.49589 3.93138 9.2721L0.404318 5.64642C-0.0483437 5.1811 -0.0483441 4.44 0.404317 3.97468L3.91788 0.36287C4.14356 0.130877 4.45346 0 4.77712 0H7.333C7.65665 0 7.96655 0.130871 8.19223 0.362856L9.63723 1.84822C10.1079 2.33203 10.885 2.33203 11.3557 1.84822L12.8007 0.362856C13.0264 0.130871 13.3363 0 13.6599 0H16.2226C16.5463 0 16.8562 0.130876 17.0819 0.36287L20.5954 3.97468Z"/>
</mask>
<path d="M12.8007 0.362856L11.3671 -1.03175L12.8007 0.362856ZM0.404317 3.97468L-1.02926 2.5801L0.404317 3.97468ZM3.93138 9.2721L5.36496 7.87752L3.93138 9.2721ZM17.0684 9.2721L15.6348 7.87752L17.0684 9.2721ZM20.5954 5.64642L22.029 7.041L20.5954 5.64642ZM20.5954 3.97468L22.029 2.5801L20.5954 3.97468ZM20.5954 5.64642L19.1619 4.25183L15.6348 7.87752L17.0684 9.2721L18.502 10.6667L22.029 7.041L20.5954 5.64642ZM16.7289 10.108H14.7289V15.8013H16.7289H18.7289V10.108H16.7289ZM15.5301 17V15H5.46961V17V19H15.5301V17ZM4.27087 15.8013H6.27087V10.108H4.27087H2.27087V15.8013H4.27087ZM3.93138 9.2721L5.36496 7.87752L1.8379 4.25184L0.404318 5.64642L-1.02926 7.041L2.4978 10.6667L3.93138 9.2721ZM0.404317 3.97468L1.8379 5.36926L5.35145 1.75745L3.91788 0.36287L2.4843 -1.03171L-1.02926 2.5801L0.404317 3.97468ZM4.77712 0V2H7.333V0V-2H4.77712V0ZM8.19223 0.362856L6.75867 1.75746L8.20368 3.24282L9.63723 1.84822L11.0708 0.453614L9.62579 -1.03175L8.19223 0.362856ZM11.3557 1.84822L12.7892 3.24282L14.2342 1.75746L12.8007 0.362856L11.3671 -1.03175L9.92213 0.453614L11.3557 1.84822ZM13.6599 0V2H16.2226V0V-2H13.6599V0ZM17.0819 0.36287L15.6483 1.75745L19.1619 5.36926L20.5954 3.97468L22.029 2.5801L18.5155 -1.03171L17.0819 0.36287ZM16.2226 0V2C16.0063 2 15.7992 1.91252 15.6483 1.75745L17.0819 0.36287L18.5155 -1.03171C17.9132 -1.65077 17.0863 -2 16.2226 -2V0ZM12.8007 0.362856L14.2342 1.75746C14.0834 1.91252 13.8763 2 13.6599 2V0V-2C12.7963 -2 11.9693 -1.65078 11.3671 -1.03175L12.8007 0.362856ZM9.63723 1.84822L8.20368 3.24282C9.4596 4.53383 11.5333 4.53382 12.7892 3.24282L11.3557 1.84822L9.92213 0.453614C10.2367 0.130227 10.7562 0.130226 11.0708 0.453614L9.63723 1.84822ZM7.333 0V2C7.11667 2 6.90952 1.91252 6.75867 1.75746L8.19223 0.362856L9.62579 -1.03175C9.02357 -1.65078 8.19664 -2 7.333 -2V0ZM3.91788 0.36287L5.35145 1.75745C5.2006 1.91252 4.99346 2 4.77712 2V0V-2C3.91347 -2 3.08651 -1.65077 2.4843 -1.03171L3.91788 0.36287ZM0.404318 5.64642L1.8379 4.25184C2.14046 4.56286 2.14046 5.05823 1.8379 5.36926L0.404317 3.97468L-1.02926 2.5801C-2.23715 3.82177 -2.23715 5.79933 -1.02926 7.041L0.404318 5.64642ZM4.27087 10.108H6.27087C6.27087 9.27489 5.94586 8.47467 5.36496 7.87752L3.93138 9.2721L2.4978 10.6667C2.35229 10.5171 2.27087 10.3167 2.27087 10.108H4.27087ZM5.46961 17V15C5.91214 15 6.27087 15.3587 6.27087 15.8013H4.27087H2.27087C2.27087 17.5679 3.703 19 5.46961 19V17ZM16.7289 15.8013H14.7289C14.7289 15.3587 15.0876 15 15.5301 15V17V19C17.2968 19 18.7289 17.5679 18.7289 15.8013H16.7289ZM17.0684 9.2721L15.6348 7.87752C15.0539 8.47467 14.7289 9.27489 14.7289 10.108H16.7289H18.7289C18.7289 10.3167 18.6475 10.5171 18.502 10.6667L17.0684 9.2721ZM20.5954 5.64642L22.029 7.041C23.2369 5.79933 23.2369 3.82176 22.029 2.5801L20.5954 3.97468L19.1619 5.36926C18.8593 5.05823 18.8593 4.56286 19.1619 4.25183L20.5954 5.64642Z" fill="#5F5162" mask="url(#path-1-inside-1_40002817_42843)"/>
</svg>
