<svg width="22" height="17" viewBox="0 0 22 17" fill="none" xmlns="http://www.w3.org/2000/svg">
<mask id="path-1-inside-1_40002284_13984" fill="white">
<path d="M21.097 3.97468C21.5497 4.44 21.5497 5.1811 21.097 5.64642L17.57 9.2721C17.3523 9.49589 17.2305 9.79577 17.2305 10.108V15.8013C17.2305 16.4633 16.6938 17 16.0317 17H5.9712C5.30915 17 4.77246 16.4633 4.77246 15.8013V10.108C4.77246 9.79577 4.65066 9.49589 4.43296 9.2721L0.905903 5.64642C0.453241 5.1811 0.453241 4.44 0.905902 3.97468L4.41946 0.36287C4.64514 0.130877 4.95505 0 5.2787 0H7.83459C8.15824 0 8.46813 0.130871 8.69382 0.362856L10.1388 1.84822C10.6095 2.33203 11.3866 2.33203 11.8573 1.84822L13.3023 0.362856C13.528 0.130871 13.8379 0 14.1615 0H16.7242C17.0479 0 17.3578 0.130876 17.5835 0.36287L21.097 3.97468Z"/>
</mask>
<path d="M13.3023 0.362856L11.8687 -1.03175L13.3023 0.362856ZM4.41946 0.36287L2.98588 -1.03171L4.41946 0.36287ZM0.905902 3.97468L-0.527675 2.5801L0.905902 3.97468ZM17.57 9.2721L16.1364 7.87752L17.57 9.2721ZM21.097 5.64642L22.5306 7.041L21.097 5.64642ZM21.097 3.97468L22.5306 2.5801L21.097 3.97468ZM21.097 5.64642L19.6634 4.25183L16.1364 7.87752L17.57 9.2721L19.0035 10.6667L22.5306 7.041L21.097 5.64642ZM17.2305 10.108H15.2305V15.8013H17.2305H19.2305V10.108H17.2305ZM16.0317 17V15H5.9712V17V19H16.0317V17ZM4.77246 15.8013H6.77246V10.108H4.77246H2.77246V15.8013H4.77246ZM4.43296 9.2721L5.86654 7.87752L2.33948 4.25184L0.905903 5.64642L-0.527675 7.041L2.99938 10.6667L4.43296 9.2721ZM0.905902 3.97468L2.33948 5.36926L5.85304 1.75745L4.41946 0.36287L2.98588 -1.03171L-0.527675 2.5801L0.905902 3.97468ZM5.2787 0V2H7.83459V0V-2H5.2787V0ZM8.69382 0.362856L7.26026 1.75746L8.70526 3.24282L10.1388 1.84822L11.5724 0.453614L10.1274 -1.03175L8.69382 0.362856ZM11.8573 1.84822L13.2908 3.24282L14.7358 1.75746L13.3023 0.362856L11.8687 -1.03175L10.4237 0.453614L11.8573 1.84822ZM14.1615 0V2H16.7242V0V-2H14.1615V0ZM17.5835 0.36287L16.1499 1.75745L19.6634 5.36926L21.097 3.97468L22.5306 2.5801L19.017 -1.03171L17.5835 0.36287ZM16.7242 0V2C16.5079 2 16.3007 1.91252 16.1499 1.75745L17.5835 0.36287L19.017 -1.03171C18.4148 -1.65077 17.5879 -2 16.7242 -2V0ZM13.3023 0.362856L14.7358 1.75746C14.585 1.91252 14.3778 2 14.1615 2V0V-2C13.2979 -2 12.4709 -1.65078 11.8687 -1.03175L13.3023 0.362856ZM10.1388 1.84822L8.70526 3.24282C9.96119 4.53383 12.0349 4.53382 13.2908 3.24282L11.8573 1.84822L10.4237 0.453614C10.7383 0.130227 11.2578 0.130226 11.5724 0.453614L10.1388 1.84822ZM7.83459 0V2C7.61825 2 7.41111 1.91252 7.26026 1.75746L8.69382 0.362856L10.1274 -1.03175C9.52516 -1.65078 8.69822 -2 7.83459 -2V0ZM4.41946 0.36287L5.85304 1.75745C5.70219 1.91252 5.49504 2 5.2787 2V0V-2C4.41505 -2 3.5881 -1.65077 2.98588 -1.03171L4.41946 0.36287ZM0.905903 5.64642L2.33948 4.25184C2.64205 4.56286 2.64205 5.05823 2.33948 5.36926L0.905902 3.97468L-0.527675 2.5801C-1.73557 3.82177 -1.73557 5.79933 -0.527675 7.041L0.905903 5.64642ZM4.77246 10.108H6.77246C6.77246 9.27489 6.44744 8.47467 5.86654 7.87752L4.43296 9.2721L2.99938 10.6667C2.85387 10.5171 2.77246 10.3167 2.77246 10.108H4.77246ZM5.9712 17V15C6.41372 15 6.77246 15.3587 6.77246 15.8013H4.77246H2.77246C2.77246 17.5679 4.20458 19 5.9712 19V17ZM17.2305 15.8013H15.2305C15.2305 15.3587 15.5892 15 16.0317 15V17V19C17.7983 19 19.2305 17.5679 19.2305 15.8013H17.2305ZM17.57 9.2721L16.1364 7.87752C15.5555 8.47467 15.2305 9.27489 15.2305 10.108H17.2305H19.2305C19.2305 10.3167 19.1491 10.5171 19.0035 10.6667L17.57 9.2721ZM21.097 5.64642L22.5306 7.041C23.7385 5.79933 23.7385 3.82176 22.5306 2.5801L21.097 3.97468L19.6634 5.36926C19.3609 5.05823 19.3609 4.56286 19.6634 4.25183L21.097 5.64642Z" fill="#5F5162" mask="url(#path-1-inside-1_40002284_13984)"/>
</svg>
