<svg width="24" height="18" viewBox="0 0 24 18" fill="none" xmlns="http://www.w3.org/2000/svg">
<circle cx="8.86761" cy="9.13323" r="8.36761" stroke="#8B6193"/>
<path fill-rule="evenodd" clip-rule="evenodd" d="M15.4228 1.3513C15.3116 1.3638 15.199 1.34296 15.1001 1.29061C14.9076 1.18878 14.711 1.09382 14.5104 1.00606C14.2443 0.889607 14.252 0.501381 14.536 0.440337C15.5405 0.224415 16.5778 0.208468 17.5885 0.39341C18.5992 0.578353 19.5636 0.960562 20.4266 1.51821C21.2896 2.07587 22.0343 2.79804 22.6182 3.64351C23.2021 4.48897 23.6137 5.44117 23.8297 6.44574C24.0456 7.4503 24.0615 8.48756 23.8766 9.49828C23.6917 10.509 23.3095 11.4734 22.7518 12.3364C22.1942 13.1994 21.472 13.9442 20.6266 14.5281C19.7811 15.112 18.8289 15.5237 17.8244 15.7396C17.4687 15.8161 17.2701 15.3732 17.5152 15.1042C17.6108 14.9992 17.704 14.8919 17.7946 14.7824C17.866 14.6961 17.9619 14.6338 18.0694 14.6026C18.7691 14.3996 19.4325 14.0849 20.0337 13.6697C20.7664 13.1636 21.3923 12.5182 21.8756 11.7702C22.3589 11.0223 22.6901 10.1865 22.8504 9.31051C23.0107 8.43454 22.9969 7.53559 22.8097 6.66497C22.6226 5.79434 22.2658 4.96911 21.7598 4.23637C21.2537 3.50363 20.6083 2.87775 19.8604 2.39445C19.1124 1.91115 18.2766 1.5799 17.4007 1.41962C16.7471 1.30002 16.0807 1.27736 15.4228 1.3513Z" fill="#8B6193"/>
<path d="M10.6387 7.66406C10.4922 6.81445 9.80859 6.32617 8.94922 6.32617C7.78711 6.32617 6.97656 7.21484 6.97656 8.81641C6.97656 10.4375 7.79688 11.3066 8.94922 11.3066C9.78906 11.3066 10.4727 10.8379 10.6387 10.0078H11.918C11.7227 11.3652 10.6094 12.4492 8.92969 12.4492C7.06445 12.4492 5.69727 11.0918 5.69727 8.81641C5.69727 6.53125 7.08398 5.18359 8.92969 5.18359C10.4922 5.18359 11.7031 6.0918 11.918 7.66406H10.6387Z" fill="#C0B9DB"/>
</svg>
