<svg width="17" height="17" viewBox="0 0 17 17" fill="none" xmlns="http://www.w3.org/2000/svg">
<path d="M8.4915 0C3.7995 0 0 3.808 0 8.5C0 13.192 3.7995 17 8.4915 17C13.192 17 17 13.192 17 8.5C17 3.808 13.192 0 8.4915 0ZM8.5 15.3C4.743 15.3 1.7 12.257 1.7 8.5C1.7 4.743 4.743 1.7 8.5 1.7C12.257 1.7 15.3 4.743 15.3 8.5C15.3 12.257 12.257 15.3 8.5 15.3ZM11.475 7.65C12.1805 7.65 12.75 7.0805 12.75 6.375C12.75 5.6695 12.1805 5.1 11.475 5.1C10.7695 5.1 10.2 5.6695 10.2 6.375C10.2 7.0805 10.7695 7.65 11.475 7.65ZM5.525 7.65C6.2305 7.65 6.8 7.0805 6.8 6.375C6.8 5.6695 6.2305 5.1 5.525 5.1C4.8195 5.1 4.25 5.6695 4.25 6.375C4.25 7.0805 4.8195 7.65 5.525 7.65ZM8.5 13.175C10.4805 13.175 12.1635 11.934 12.8435 10.2H4.1565C4.8365 11.934 6.5195 13.175 8.5 13.175Z" fill="#FFFFFF"/>
</svg>
