<svg width="18" height="18" viewBox="0 0 18 18" fill="none" xmlns="http://www.w3.org/2000/svg">
<path d="M6.33333 1C3.38782 1 1 3.38782 1 6.33333" stroke="white" stroke-width="2"/>
<path d="M11.6667 17C14.6122 17 17 14.6122 17 11.6667" stroke="white" stroke-width="2"/>
<path d="M11.6667 1C14.6122 1 17 3.38782 17 6.33333" stroke="white" stroke-width="2"/>
<path d="M6.33333 17C3.38782 17 1 14.6122 1 11.6667" stroke="white" stroke-width="2"/>
<path d="M11.9834 9.5335C11.9834 9.8377 11.9137 10.1425 11.7739 10.4318C11.6339 10.7215 11.4247 10.9929 11.1518 11.2268C10.8787 11.4609 10.5486 11.6515 10.1778 11.7831C9.80705 11.9148 9.40657 11.9835 9.00006 11.9835C8.59355 11.9835 8.19306 11.9148 7.82231 11.7831C7.45154 11.6515 7.12137 11.4609 6.84829 11.2268C6.57539 10.9929 6.36621 10.7215 6.22619 10.4318C6.08642 10.1425 6.01672 9.8377 6.01672 9.5335" stroke="white" stroke-width="1.5"/>
<circle cx="11.6666" cy="7.40016" r="1.06667" fill="white"/>
<circle cx="6.33339" cy="7.40016" r="1.06667" fill="white"/>
</svg>
