<svg width="16" height="14" viewBox="0 0 16 14" fill="none" xmlns="http://www.w3.org/2000/svg">
<path d="M14.6671 8.09134L9.35587 13.4458C9.00374 13.8007 8.52621 14 8.0283 14C7.53039 14 7.05286 13.8007 6.70073 13.4458L1.38952 8.09229C0.950473 7.6536 0.601713 7.13183 0.363262 6.55692C0.124811 5.982 0.00136497 5.36528 1.12558e-05 4.74215C-0.00134246 4.11902 0.119423 3.50176 0.355374 2.9258C0.591325 2.34984 0.937814 1.82653 1.37495 1.38591C1.81209 0.945289 2.33126 0.596038 2.90266 0.358206C3.47407 0.120374 4.08645 -0.00135316 4.70465 1.13456e-05C5.32285 0.00137585 5.9347 0.125806 6.50507 0.366157C7.07543 0.606509 7.59308 0.958049 8.0283 1.40059C8.91231 0.531716 10.1003 0.0488784 11.335 0.0566763C12.5697 0.0644743 13.7517 0.56228 14.6248 1.44226C15.498 2.32223 15.992 3.51352 15.9999 4.75806C16.0078 6.00259 15.529 7.20016 14.6671 8.09134Z" fill="#F45B5B"/>
</svg>
