<svg width="20" height="23" viewBox="0 0 20 23" fill="none" xmlns="http://www.w3.org/2000/svg">
<path d="M7.25 0C6.69772 0 6.25 0.447715 6.25 1V1.25H1.25C0.559644 1.25 0 1.80964 0 2.5C0 3.19036 0.559644 3.75 1.25 3.75V20C1.25 20.663 1.51339 21.2989 1.98223 21.7678C2.45107 22.2366 3.08696 22.5 3.75 22.5H16.25C16.913 22.5 17.5489 22.2366 18.0178 21.7678C18.4866 21.2989 18.75 20.663 18.75 20V3.75C19.4404 3.75 20 3.19036 20 2.5C20 1.80964 19.4404 1.25 18.75 1.25H13.75V1C13.75 0.447715 13.3023 0 12.75 0H7.25ZM3.75 3.75H16.25V20H3.75V3.75ZM7.5 6.25C6.80964 6.25 6.25 6.80964 6.25 7.5V16.25C6.25 16.9404 6.80964 17.5 7.5 17.5C8.19036 17.5 8.75 16.9404 8.75 16.25V7.5C8.75 6.80964 8.19036 6.25 7.5 6.25ZM12.5 6.25C11.8096 6.25 11.25 6.80964 11.25 7.5V16.25C11.25 16.9404 11.8096 17.5 12.5 17.5C13.1904 17.5 13.75 16.9404 13.75 16.25V7.5C13.75 6.80964 13.1904 6.25 12.5 6.25Z" fill="white"/>
</svg>
