<svg width="18" height="16" viewBox="0 0 18 16" fill="none" xmlns="http://www.w3.org/2000/svg">
<path d="M15.6671 9.09135L10.3559 14.4458C10.0037 14.8007 9.52621 15 9.0283 15C8.53039 15 8.05286 14.8007 7.70073 14.4458L2.38952 9.09229C1.95047 8.6536 1.60171 8.13183 1.36326 7.55692C1.12481 6.982 1.00136 6.36528 1.00001 5.74215C0.998658 5.11902 1.11942 4.50176 1.35537 3.9258C1.59132 3.34984 1.93781 2.82653 2.37495 2.38591C2.81209 1.94529 3.33126 1.59604 3.90266 1.35821C4.47407 1.12037 5.08645 0.998647 5.70465 1.00001C6.32285 1.00138 6.9347 1.12581 7.50507 1.36616C8.07543 1.60651 8.59308 1.95805 9.0283 2.40059C9.91231 1.53172 11.1003 1.04888 12.335 1.05668C13.5697 1.06447 14.7517 1.56228 15.6248 2.44226C16.498 3.32223 16.992 4.51352 16.9999 5.75806C17.0078 7.00259 16.529 8.20016 15.6671 9.09135Z" stroke="#444444" stroke-linecap="round" stroke-linejoin="round"/>
</svg>
