<svg width="472" height="373" viewBox="0 0 472 373" fill="none" xmlns="http://www.w3.org/2000/svg">
<circle cx="236.208" cy="186.465" r="134.094" transform="rotate(15 236.208 186.465)" fill="url(#paint0_linear_40001807_70480)"/>
<circle cx="204.69" cy="96.3153" r="18.1586" transform="rotate(15 204.69 96.3153)" fill="white"/>
<circle cx="164.354" cy="117.322" r="8.3809" transform="rotate(15 164.354 117.322)" fill="white"/>
<path fill-rule="evenodd" clip-rule="evenodd" d="M384.303 193.84C394.348 203.954 398.975 213.674 396.724 222.076C394.472 230.478 385.605 236.581 371.849 240.318C367.721 249.731 362.746 258.57 357.048 266.76C408.872 267.66 444.964 257.378 450.558 236.501C456.152 215.624 430.037 188.673 384.706 163.54C385.545 173.482 385.434 183.625 384.303 193.84ZM119.824 92.3757C67.593 91.3613 31.1747 101.642 25.5534 122.621C19.9321 143.6 46.3309 170.713 92.0714 195.95C91.2262 186.084 91.3164 176.02 92.411 165.882C81.9496 155.552 77.0922 145.614 79.388 137.046C81.6839 128.478 90.8596 122.3 105.084 118.584C109.205 109.258 114.159 100.497 119.824 92.3757Z" fill="white"/>
<path fill-rule="evenodd" clip-rule="evenodd" d="M25.5527 122.621C15.8172 158.96 103.064 213.91 220.425 245.357C337.786 276.804 440.819 272.839 450.557 236.501L396.768 222.088C390.031 247.226 309.031 239.431 227.842 217.676C146.654 195.922 72.9402 162.262 79.6744 137.123L25.5527 122.621Z" fill="white"/>
<defs>
<linearGradient id="paint0_linear_40001807_70480" x1="155.619" y1="82.7568" x2="305.567" y2="292.155" gradientUnits="userSpaceOnUse">
<stop stop-color="#8B6193"/>
<stop offset="0.91" stop-color="#BBC4E1"/>
</linearGradient>
</defs>
</svg>
