<svg width="22" height="22" viewBox="0 0 22 22" fill="none" xmlns="http://www.w3.org/2000/svg">
<path d="M17.6671 12.0913L12.3559 17.4458C12.0037 17.8007 11.5262 18 11.0283 18C10.5304 18 10.0529 17.8007 9.70073 17.4458L4.38952 12.0923C3.95047 11.6536 3.60171 11.1318 3.36326 10.5569C3.12481 9.982 3.00136 9.36528 3.00001 8.74215C2.99866 8.11902 3.11942 7.50176 3.35537 6.9258C3.59132 6.34984 3.93781 5.82653 4.37495 5.38591C4.81209 4.94529 5.33126 4.59604 5.90266 4.35821C6.47407 4.12037 7.08645 3.99865 7.70465 4.00001C8.32285 4.00138 8.9347 4.12581 9.50507 4.36616C10.0754 4.60651 10.5931 4.95805 11.0283 5.40059C11.9123 4.53172 13.1003 4.04888 14.335 4.05668C15.5697 4.06447 16.7517 4.56228 17.6248 5.44226C18.498 6.32223 18.992 7.51352 18.9999 8.75806C19.0078 10.0026 18.529 11.2002 17.6671 12.0913Z" fill="#F45B5B"/>
</svg>
