<svg width="24" height="20" viewBox="0 0 24 20" fill="none" xmlns="http://www.w3.org/2000/svg">
<mask id="path-1-inside-1_40001208_36098" fill="white">
<path fill-rule="evenodd" clip-rule="evenodd" d="M8.97162 0.375588C8.74517 0.135855 8.42996 0 8.10018 0H5.21166C4.88189 0 4.56668 0.135855 4.34023 0.375588L0.327305 4.62389C-0.109102 5.0859 -0.109102 5.80819 0.327305 6.27019L4.3677 10.5476C4.5779 10.7701 4.69501 11.0646 4.69501 11.3707V18.0508C4.69501 18.7128 5.2317 19.2495 5.89374 19.2495H17.1919C17.8539 19.2495 18.3906 18.7128 18.3906 18.0508V11.3704C18.3906 11.0643 18.5077 10.7698 18.7179 10.5473L22.758 6.27019C23.1944 5.80819 23.1944 5.0859 22.758 4.62389L18.3906 0.000346032C18.3906 0.000307947 18.3906 0.000257544 18.3906 0.000205155C18.3906 9.18512e-05 18.3905 0 18.3904 0H18.3903H14.9773C14.6476 0 14.3323 0.135855 14.1059 0.375588L12.4102 2.17076C11.9372 2.67154 11.1404 2.67154 10.6673 2.17076L8.97162 0.375588Z"/>
</mask>
<path d="M10.6673 2.17076L9.94036 2.85744L10.6673 2.17076ZM18.3906 0.000346032L19.1176 -0.686335L18.3906 0.000346032ZM22.758 6.27019L23.485 6.95688L22.758 6.27019ZM0.327305 4.62389L-0.399654 3.93721L0.327305 4.62389ZM5.21166 1H8.10018V-1H5.21166V1ZM1.05426 5.31057L5.06719 1.06227L3.61327 -0.311093L-0.399654 3.93721L1.05426 5.31057ZM5.09466 9.8609L1.05426 5.58351L-0.399654 6.95688L3.64074 11.2343L5.09466 9.8609ZM5.69501 18.0508V11.3707H3.69501V18.0508H5.69501ZM17.1919 18.2495H5.89374V20.2495H17.1919V18.2495ZM17.3906 11.3704V18.0508H19.3906V11.3704H17.3906ZM22.0311 5.58351L17.9909 9.86062L19.4449 11.234L23.485 6.95688L22.0311 5.58351ZM17.6637 0.687027L22.0311 5.31057L23.485 3.93721L19.1176 -0.686335L17.6637 0.687027ZM18.3903 1H18.3904V-1H18.3903V1ZM14.9773 1H18.3903V-1H14.9773V1ZM13.3789 -0.311093L11.6832 1.48408L13.1371 2.85744L14.8329 1.06227L13.3789 -0.311093ZM11.3943 1.48408L9.69858 -0.311093L8.24466 1.06227L9.94036 2.85744L11.3943 1.48408ZM11.6832 1.48408C11.6048 1.5671 11.4727 1.5671 11.3943 1.48408L9.94036 2.85744C10.808 3.77598 12.2695 3.77598 13.1371 2.85744L11.6832 1.48408ZM19.3906 0.000205155C19.3906 -0.552193 18.9428 -1 18.3904 -1V1C17.8382 1 17.3906 0.552376 17.3906 0.000205155H19.3906ZM19.1176 -0.686335C19.2929 -0.500737 19.3906 -0.255102 19.3906 0.000205155H17.3906C17.3906 0.255617 17.4883 0.501353 17.6637 0.687027L19.1176 -0.686335ZM23.485 6.95688C24.2854 6.10946 24.2854 4.78462 23.485 3.93721L22.0311 5.31057C22.1034 5.38717 22.1034 5.50692 22.0311 5.58351L23.485 6.95688ZM19.3906 11.3704C19.3906 11.3197 19.41 11.2709 19.4449 11.234L17.9909 9.86062C17.6054 10.2688 17.3906 10.809 17.3906 11.3704H19.3906ZM17.1919 20.2495C18.4062 20.2495 19.3906 19.2651 19.3906 18.0508H17.3906C17.3906 18.1605 17.3016 18.2495 17.1919 18.2495V20.2495ZM3.69501 18.0508C3.69501 19.2651 4.67941 20.2495 5.89374 20.2495V18.2495C5.78398 18.2495 5.69501 18.1605 5.69501 18.0508H3.69501ZM3.64074 11.2343C3.67559 11.2712 3.69501 11.32 3.69501 11.3707H5.69501C5.69501 10.8093 5.48021 10.2691 5.09466 9.8609L3.64074 11.2343ZM-0.399654 3.93721C-1.20011 4.78462 -1.20012 6.10946 -0.399654 6.95688L1.05426 5.58351C0.981912 5.50692 0.981912 5.38717 1.05426 5.31057L-0.399654 3.93721ZM8.10018 1C8.15486 1 8.20711 1.02252 8.24466 1.06227L9.69858 -0.311093C9.28322 -0.750813 8.70506 -1 8.10018 -1V1ZM14.9773 -1C14.3725 -1 13.7943 -0.750813 13.3789 -0.311093L14.8329 1.06227C14.8704 1.02252 14.9227 1 14.9773 1V-1ZM5.21166 -1C4.60679 -1 4.02863 -0.750813 3.61327 -0.311093L5.06719 1.06227C5.10473 1.02252 5.15699 1 5.21166 1V-1Z" fill="white" mask="url(#path-1-inside-1_40001208_36098)"/>
<line x1="11.5" y1="7" x2="11.5" y2="13" stroke="white"/>
<line x1="14.4844" y1="10.125" x2="8.6048" y2="10.125" stroke="white"/>
</svg>
