<svg width="53" height="54" viewBox="0 0 53 54" fill="none" xmlns="http://www.w3.org/2000/svg">
<g filter="url(#filter0_d_40001208_36121)">
<path d="M14.7774 48.9818C14.4451 49.2033 14 48.9651 14 48.5657V42C14 41.7239 14.2239 41.5 14.5 41.5H19.5C19.7761 41.5 20 41.7239 20 42V48.5657C20 48.9651 19.5549 49.2033 19.2227 48.9818L17.2774 47.6849C17.1094 47.5729 16.8906 47.5729 16.7227 47.6849L14.7774 48.9818Z" fill="#B7D3F2" stroke="#7F6D83"/>
<path fill-rule="evenodd" clip-rule="evenodd" d="M5.69846 9.29748L23.5 16.9954V45.0009C23.5 45.3633 23.1266 45.6053 22.7958 45.4573L5.59161 37.7601C5.2317 37.5991 5 37.2416 5 36.8473V9.7564C5 9.39675 5.36834 9.15472 5.69846 9.29748ZM47.8015 9.29748L30 16.9954V44.9985C30 45.3608 30.3734 45.6028 30.7041 45.4549L47.9083 37.7601C48.2683 37.5991 48.5 37.2416 48.5 36.8472V9.7564C48.5 9.39675 48.1317 9.15472 47.8015 9.29748Z" fill="url(#paint0_linear_40001208_36121)"/>
<path d="M23.5 16.9954H24V16.6669L23.6985 16.5365L23.5 16.9954ZM5.69846 9.29748L5.5 9.7564H5.5L5.69846 9.29748ZM22.7958 45.4573L23 45.0009H23L22.7958 45.4573ZM5.59161 37.7601L5.79581 37.3037H5.79581L5.59161 37.7601ZM30 16.9954L29.8015 16.5365L29.5 16.6669V16.9954H30ZM47.8015 9.29748L47.6031 8.83855V8.83855L47.8015 9.29748ZM30.7041 45.4549L30.9083 45.9113H30.9083L30.7041 45.4549ZM47.9083 37.7601L47.7041 37.3037L47.9083 37.7601ZM23.6985 16.5365L5.89691 8.83855L5.5 9.7564L23.3015 17.4544L23.6985 16.5365ZM24 45.0009V16.9954H23V45.0009H24ZM22.5916 45.9137C23.2531 46.2097 24 45.7256 24 45.0009H23H23L22.5916 45.9137ZM5.38741 38.2165L22.5916 45.9137L23 45.0009L5.79581 37.3037L5.38741 38.2165ZM4.5 36.8473C4.5 37.4388 4.84754 37.975 5.38741 38.2165L5.79581 37.3037C5.61585 37.2232 5.5 37.0445 5.5 36.8473H4.5ZM4.5 9.7564V36.8473H5.5V9.7564H4.5ZM5.89691 8.83855C5.23668 8.55304 4.5 9.03709 4.5 9.7564H5.5L5.5 9.7564L5.89691 8.83855ZM30.1985 17.4544L48 9.7564L47.6031 8.83855L29.8015 16.5365L30.1985 17.4544ZM30.5 44.9985V16.9954H29.5V44.9985H30.5ZM30.5 44.9985H30.5H29.5C29.5 45.7231 30.2468 46.2072 30.9083 45.9113L30.5 44.9985ZM47.7041 37.3037L30.5 44.9985L30.9083 45.9113L48.1124 38.2165L47.7041 37.3037ZM48 36.8472C48 37.0444 47.8841 37.2232 47.7041 37.3037L48.1124 38.2165C48.6524 37.975 49 37.4387 49 36.8472H48ZM48 9.7564V36.8472H49V9.7564H48ZM48 9.7564V9.7564H49C49 9.03709 48.2633 8.55304 47.6031 8.83855L48 9.7564Z" fill="#7F6D83"/>
<path d="M30 45.5H23.5V17H30V45.5Z" fill="#FEE5FF" stroke="#7F6D83"/>
<path d="M12.19 5.25557C11.8826 5.09666 11.515 5.10795 11.2179 5.28541L5.83809 8.49932C5.4882 8.70835 5.52197 9.22572 5.89606 9.38749L23.5 17H27C27 14 27 13 25.087 11.9231L12.19 5.25557Z" fill="#FEF4FF" stroke="#7F6D83"/>
<path d="M41.7896 5.26613C42.108 5.10153 42.4901 5.11992 42.7912 5.31432L47.7204 8.49666C48.0548 8.71257 48.0151 9.21371 47.6508 9.37425L30.3478 17H27C27 14 27 13 28.913 11.9231L41.7896 5.26613Z" fill="#FEF4FF" stroke="#7F6D83"/>
<path d="M36.214 26.1618C35.8823 26.3189 35.5 26.077 35.5 25.7099V22.6328C35.5 22.2464 35.7227 21.8945 36.0719 21.7291L44.286 17.8382C44.6177 17.6811 45 17.923 45 18.2901V21.3672C45 21.7536 44.7773 22.1055 44.4281 22.2709L36.214 26.1618Z" fill="#FEE5FF" stroke="#7F6D83"/>
</g>
<defs>
<filter id="filter0_d_40001208_36121" x="0.5" y="0.644531" width="52.5" height="52.9238" filterUnits="userSpaceOnUse" color-interpolation-filters="sRGB">
<feFlood flood-opacity="0" result="BackgroundImageFix"/>
<feColorMatrix in="SourceAlpha" type="matrix" values="0 0 0 0 0 0 0 0 0 0 0 0 0 0 0 0 0 0 127 0" result="hardAlpha"/>
<feOffset/>
<feGaussianBlur stdDeviation="2"/>
<feComposite in2="hardAlpha" operator="out"/>
<feColorMatrix type="matrix" values="0 0 0 0 1 0 0 0 0 1 0 0 0 0 1 0 0 0 0.7 0"/>
<feBlend mode="normal" in2="BackgroundImageFix" result="effect1_dropShadow_40001208_36121"/>
<feBlend mode="normal" in="SourceGraphic" in2="effect1_dropShadow_40001208_36121" result="shape"/>
</filter>
<linearGradient id="paint0_linear_40001208_36121" x1="-5.6109e-07" y1="5.99561" x2="47.0816" y2="43.8942" gradientUnits="userSpaceOnUse">
<stop stop-color="#A173AA"/>
<stop offset="1" stop-color="#B7D3F2"/>
</linearGradient>
</defs>
</svg>
