<svg width="18" height="21" viewBox="0 0 18 21" fill="none" xmlns="http://www.w3.org/2000/svg">
<mask id="path-1-inside-1_40001208_36099" fill="white">
<path fill-rule="evenodd" clip-rule="evenodd" d="M15.4504 18.5383C15.4502 18.5383 15.4501 18.5384 15.4501 18.5386C15.4501 18.5388 15.45 18.5389 15.4498 18.5389H1.68697C1.68679 18.5389 1.68665 18.5388 1.68665 18.5386C1.68665 18.5384 1.6865 18.5383 1.68633 18.5383H0.844735C0.244815 18.5383 -0.16261 17.9287 0.0668217 17.3744L1.44019 14.0563C1.6029 13.6632 1.68665 13.2418 1.68665 12.8164V9.28797V8.88695C1.68665 8.88359 1.68938 8.88086 1.69274 8.88086C1.69597 8.88086 1.69864 8.87831 1.69883 8.87509C1.91236 5.26665 4.90632 2.40625 8.56837 2.40625C12.2304 2.40625 15.2244 5.26665 15.4379 8.87509C15.4381 8.87831 15.4408 8.88086 15.444 8.88086C15.4474 8.88086 15.4501 8.88359 15.4501 8.88695V9.28797V12.8105C15.4501 13.2364 15.5339 13.6581 15.6968 14.0516L17.0716 17.3732C17.3013 17.9281 16.8934 18.5383 16.2929 18.5383H15.4504Z"/>
</mask>
<path d="M17.0716 17.3732L17.9956 16.9907L17.0716 17.3732ZM15.4379 8.87509L14.4397 8.93416L15.4379 8.87509ZM1.69883 8.87509L2.69708 8.93416L1.69883 8.87509ZM15.6968 14.0516L14.7728 14.4341L15.6968 14.0516ZM1.68697 19.5389H15.4498V17.5389H1.68697V19.5389ZM0.844735 19.5383H1.68633V17.5383H0.844735V19.5383ZM0.516208 13.6738L-0.85716 16.992L0.990803 17.7568L2.36417 14.4387L0.516208 13.6738ZM0.686649 9.28797V12.8164H2.68665V9.28797H0.686649ZM0.686649 8.88695V9.28797H2.68665V8.88695H0.686649ZM8.56837 1.40625C4.37383 1.40625 0.945186 4.68232 0.700576 8.81602L2.69708 8.93416C2.87953 5.85098 5.43882 3.40625 8.56837 3.40625V1.40625ZM16.4362 8.81602C16.1916 4.68232 12.7629 1.40625 8.56837 1.40625V3.40625C11.6979 3.40625 14.2572 5.85098 14.4397 8.93416L16.4362 8.81602ZM16.4501 9.28797V8.88695H14.4501V9.28797H16.4501ZM16.4501 12.8105V9.28797H14.4501V12.8105H16.4501ZM17.9956 16.9907L16.6208 13.6692L14.7728 14.4341L16.1476 17.7556L17.9956 16.9907ZM15.4504 19.5383H16.2929V17.5383H15.4504V19.5383ZM16.1476 17.7556C16.1048 17.6521 16.1809 17.5383 16.2929 17.5383V19.5383C17.606 19.5383 18.4978 18.204 17.9956 16.9907L16.1476 17.7556ZM14.4397 8.93416C14.4707 9.45942 14.9051 9.88086 15.444 9.88086V7.88086C15.9765 7.88086 16.4055 8.29721 16.4362 8.81602L14.4397 8.93416ZM1.69274 9.88086C2.23169 9.88086 2.666 9.45941 2.69708 8.93416L0.700576 8.81602C0.731276 8.29722 1.16025 7.88086 1.69274 7.88086V9.88086ZM2.68665 8.88695C2.68665 9.43587 2.24166 9.88086 1.69274 9.88086V7.88086C1.13709 7.88086 0.686649 8.3313 0.686649 8.88695H2.68665ZM2.36417 14.4387C2.57707 13.9243 2.68665 13.3731 2.68665 12.8164H0.686649C0.686649 13.1106 0.628734 13.402 0.516208 13.6738L2.36417 14.4387ZM0.844735 17.5383C0.95738 17.5383 1.03388 17.6527 0.990803 17.7568L-0.85716 16.992C-1.3591 18.2047 -0.46775 19.5383 0.844735 19.5383V17.5383ZM2.68665 18.5386C2.68665 17.9861 2.23876 17.5383 1.68633 17.5383V19.5383C1.13425 19.5383 0.686649 19.0907 0.686649 18.5386H2.68665ZM14.4501 12.8105C14.4501 13.3676 14.5598 13.9193 14.7728 14.4341L16.6208 13.6692C16.5081 13.3969 16.4501 13.1051 16.4501 12.8105H14.4501ZM1.68697 17.5389C2.23908 17.5389 2.68665 17.9865 2.68665 18.5386H0.686649C0.686649 19.0911 1.13451 19.5389 1.68697 19.5389V17.5389ZM16.4501 18.5386C16.4501 19.0907 16.0025 19.5383 15.4504 19.5383V17.5383C14.898 17.5383 14.4501 17.9861 14.4501 18.5386H16.4501ZM15.444 9.88086C14.8951 9.88086 14.4501 9.43587 14.4501 8.88695H16.4501C16.4501 8.3313 15.9997 7.88086 15.444 7.88086V9.88086ZM14.4501 18.5386C14.4501 17.9868 14.8974 17.5389 15.4498 17.5389V19.5389C16.0025 19.5389 16.4501 19.0908 16.4501 18.5386H14.4501Z" fill="white" mask="url(#path-1-inside-1_40001208_36099)"/>
<mask id="path-3-inside-2_40001208_36099" fill="white">
<path fill-rule="evenodd" clip-rule="evenodd" d="M5.77539 18.2773C5.82947 19.7745 7.06022 20.9716 8.57057 20.9716C10.0809 20.9716 11.3117 19.7745 11.3657 18.2773H10.0803C10.0274 19.0651 9.37171 19.6877 8.57057 19.6877C7.76943 19.6877 7.11371 19.0651 7.06087 18.2773H5.77539Z"/>
</mask>
<path fill-rule="evenodd" clip-rule="evenodd" d="M5.77539 18.2773C5.82947 19.7745 7.06022 20.9716 8.57057 20.9716C10.0809 20.9716 11.3117 19.7745 11.3657 18.2773H10.0803C10.0274 19.0651 9.37171 19.6877 8.57057 19.6877C7.76943 19.6877 7.11371 19.0651 7.06087 18.2773H5.77539Z" fill="white"/>
<path d="M5.77539 18.2773V17.2773H4.73862L4.77604 18.3134L5.77539 18.2773ZM11.3657 18.2773L12.3651 18.3134L12.4025 17.2773H11.3657V18.2773ZM10.0803 18.2773V17.2773H9.14509L9.08251 18.2104L10.0803 18.2773ZM7.06087 18.2773L8.05863 18.2104L7.99605 17.2773H7.06087V18.2773ZM4.77604 18.3134C4.84947 20.3465 6.52002 21.9716 8.57057 21.9716V19.9716C7.60041 19.9716 6.80946 19.2025 6.77474 18.2412L4.77604 18.3134ZM8.57057 21.9716C10.6211 21.9716 12.2917 20.3465 12.3651 18.3134L10.3664 18.2412C10.3317 19.2025 9.54073 19.9716 8.57057 19.9716V21.9716ZM11.3657 17.2773H10.0803V19.2773H11.3657V17.2773ZM8.57057 20.6877C9.90157 20.6877 10.9902 19.6536 11.078 18.3443L9.08251 18.2104C9.06466 18.4766 8.84185 18.6877 8.57057 18.6877V20.6877ZM6.06311 18.3443C6.15093 19.6536 7.23957 20.6877 8.57057 20.6877V18.6877C8.29929 18.6877 8.07648 18.4766 8.05863 18.2104L6.06311 18.3443ZM7.06087 17.2773H5.77539V19.2773H7.06087V17.2773Z" fill="white" mask="url(#path-3-inside-2_40001208_36099)"/>
<mask id="path-5-inside-3_40001208_36099" fill="white">
<path fill-rule="evenodd" clip-rule="evenodd" d="M10.3656 2.82666V2.6867C10.3656 1.75516 9.61042 1 8.67888 1C7.74735 1 6.99219 1.75516 6.99219 2.6867V2.77139C6.6482 2.85204 6.31415 2.9585 5.99219 3.08861V2.6867C5.99219 1.20287 7.19506 0 8.67888 0C10.1627 0 11.3656 1.20288 11.3656 2.6867V3.18172C11.0445 3.03875 10.7104 2.91964 10.3656 2.82666Z"/>
</mask>
<path fill-rule="evenodd" clip-rule="evenodd" d="M10.3656 2.82666V2.6867C10.3656 1.75516 9.61042 1 8.67888 1C7.74735 1 6.99219 1.75516 6.99219 2.6867V2.77139C6.6482 2.85204 6.31415 2.9585 5.99219 3.08861V2.6867C5.99219 1.20287 7.19506 0 8.67888 0C10.1627 0 11.3656 1.20288 11.3656 2.6867V3.18172C11.0445 3.03875 10.7104 2.91964 10.3656 2.82666Z" fill="white"/>
<path d="M10.3656 2.82666H9.36558V3.5927L10.1052 3.79216L10.3656 2.82666ZM6.99219 2.77139L7.22046 3.74499L7.99219 3.56404V2.77139H6.99219ZM5.99219 3.08861H4.99219V4.57131L6.36687 4.01576L5.99219 3.08861ZM11.3656 3.18172L10.9588 4.09526L12.3656 4.72162V3.18172H11.3656ZM11.3656 2.82666V2.6867H9.36558V2.82666H11.3656ZM11.3656 2.6867C11.3656 1.20288 10.1627 0 8.67888 0V2C9.05814 2 9.36558 2.30744 9.36558 2.6867H11.3656ZM8.67888 0C7.19506 0 5.99219 1.20287 5.99219 2.6867H7.99219C7.99219 2.30744 8.29963 2 8.67888 2V0ZM5.99219 2.6867V2.77139H7.99219V2.6867H5.99219ZM6.36687 4.01576C6.64171 3.9047 6.92683 3.81383 7.22046 3.74499L6.76391 1.79779C6.36956 1.89025 5.98658 2.01231 5.6175 2.16146L6.36687 4.01576ZM4.99219 2.6867V3.08861H6.99219V2.6867H4.99219ZM8.67888 -1C6.64278 -1 4.99219 0.650589 4.99219 2.6867H6.99219C6.99219 1.75516 7.74735 1 8.67888 1V-1ZM12.3656 2.6867C12.3656 0.650591 10.715 -1 8.67888 -1V1C9.61042 1 10.3656 1.75516 10.3656 2.6867H12.3656ZM12.3656 3.18172V2.6867H10.3656V3.18172H12.3656ZM10.1052 3.79216C10.3995 3.87153 10.6847 3.97319 10.9588 4.09526L11.7723 2.26819C11.4043 2.10431 11.0213 1.96776 10.626 1.86115L10.1052 3.79216Z" fill="white" mask="url(#path-5-inside-3_40001208_36099)"/>
</svg>
