<svg width="22" height="19" viewBox="0 0 22 19" fill="none" xmlns="http://www.w3.org/2000/svg">
<path d="M0.5 18.2727C0.5 14.5323 3.53225 11.5 7.27273 11.5H8.59259C12.4074 11.5 15.5 14.5926 15.5 18.4074C15.5 18.4585 15.4585 18.5 15.4074 18.5H0.727273C0.601754 18.5 0.5 18.3982 0.5 18.2727Z" stroke="white"/>
<path fill-rule="evenodd" clip-rule="evenodd" d="M17.9547 18.7894C17.9547 18.9057 18.049 19 18.1653 19H21.4774C21.766 19 22 18.7347 22 18.4074C22 14.3164 19.075 11 15.4669 11H14.3028C13.9186 11 13.8573 11.5121 14.187 11.7094C14.2941 11.7734 14.3995 11.8405 14.5032 11.9105C14.588 11.9678 14.6876 12 14.7899 12H15.4669C18.4672 12 20.9215 14.6511 21.1068 18H18.7112C18.2861 18 17.9547 18.3644 17.9547 18.7894Z" fill="white"/>
<circle cx="7.99877" cy="4.63158" r="4.13158" stroke="white"/>
<path fill-rule="evenodd" clip-rule="evenodd" d="M15.4131 8.12471C15.269 8.13758 15.1357 8.21117 15.0537 8.33029C15.0164 8.38454 14.978 8.438 14.9387 8.49066C14.7855 8.69603 14.8949 9 15.1511 9C17.2768 9 19 7.20914 19 5C19 2.79086 17.2768 1 15.1511 1C15.0239 1 14.8981 1.00641 14.7741 1.01895C14.4375 1.05295 14.3517 1.47009 14.582 1.71782C14.681 1.82425 14.8247 1.87814 14.9697 1.86921C15.0297 1.86551 15.0902 1.86364 15.1511 1.86364C16.8178 1.86364 18.169 3.26783 18.169 5C18.169 6.64045 16.9571 7.98674 15.4131 8.12471Z" fill="white"/>
</svg>