<svg width="23" height="18" viewBox="0 0 23 18" fill="none" xmlns="http://www.w3.org/2000/svg">
<path d="M17.6527 8.53033L20.3535 4.76562L21.7039 13.7068L18.1028 17.0009H13.6016L16.3023 13.7068L17.6527 8.53033Z" fill="#E4D0E5"/>
<path d="M17.6552 8.52941L10.4531 1.47059L14.0541 1L20.3559 4.76471L17.6552 8.52941Z" fill="#C0B9DB"/>
<path d="M10.0026 1.47059L5.50128 6.17647M10.0026 1.47059L17.6547 8.52941M10.0026 1.47059L13.7167 1.03915C13.9353 1.01376 14.1561 1.06116 14.345 1.17399L20.3555 4.76471M5.50128 6.17647L2.70181 7.84888C2.4766 7.98342 2.31327 8.20108 2.24705 8.45493L1.09233 12.8814C1.03271 13.1099 1.0559 13.3522 1.15781 13.5653L2.80051 17M5.50128 6.17647L2.80051 17M2.80051 17H13.6036M13.6036 17L16.1654 13.8754C16.2569 13.7637 16.3232 13.6335 16.3597 13.4938L17.6547 8.52941M13.6036 17H17.7165C17.9663 17 18.2071 16.9065 18.3914 16.7378L21.3124 14.0658C21.5583 13.8408 21.676 13.5082 21.6263 13.1786L20.3555 4.76471M17.6547 8.52941L20.3555 4.76471" stroke="white"/>
</svg>
