<svg width="32" height="32" viewBox="0 0 32 32" fill="none" xmlns="http://www.w3.org/2000/svg">
<g clip-path="url(#clip0_40002078_2432)">
<rect width="32" height="32" rx="5" fill="#F8F8FA"/>
<path d="M20.5826 15.4341L22.6751 12.5172L23.7214 19.4449L20.9313 21.9972H17.4437L19.5363 19.4449L20.5826 15.4341Z" fill="#E4D0E5"/>
<path d="M20.5838 15.4335L15.0037 9.96434L17.7937 9.59973L22.6764 12.5166L20.5838 15.4335Z" fill="#C0B9DB"/>
<path d="M14.6551 9.96434L11.1675 13.6105M14.6551 9.96434L20.5841 15.4335M14.6551 9.96434L17.612 9.62087C17.73 9.60716 17.8493 9.63276 17.9513 9.6937L22.6766 12.5166M11.1675 13.6105L8.91602 14.9555C8.79438 15.0282 8.70617 15.1458 8.6704 15.2829L7.7298 18.8885C7.6976 19.012 7.71012 19.1428 7.76516 19.2579L9.07497 21.9966M11.1675 13.6105L9.07497 21.9966M9.07497 21.9966H17.4452M17.4452 21.9966L19.4627 19.5358C19.5122 19.4755 19.548 19.4052 19.5677 19.3297L20.5841 15.4335M17.4452 21.9966H20.7231C20.858 21.9966 20.988 21.9461 21.0876 21.855L23.5104 19.6387C23.6432 19.5172 23.7068 19.3375 23.6799 19.1595L22.6766 12.5166M20.5841 15.4335L22.6766 12.5166" stroke="#8B6193" stroke-width="1.52"/>
<path d="M0 -1.89478H11.7895V6.51692C11.7895 8.38241 10.2772 9.8947 8.4117 9.8947H0V-1.89478Z" fill="#BEAADD"/>
<path d="M6.19279 8.06917C5.18978 8.06917 4.45654 7.47428 4.42887 6.6442H5.30737C5.33504 7.05233 5.7155 7.34285 6.19279 7.34285C6.75309 7.34285 7.1543 6.93473 7.1543 6.38135C7.1543 5.80721 6.73926 5.39909 6.16512 5.39909C5.77775 5.39217 5.49414 5.53052 5.33504 5.82796H4.49805L4.80241 2.99186H7.76302V3.74585H5.54256L5.39038 5.07397H5.4388C5.63249 4.85262 5.99911 4.69352 6.40723 4.69352C7.34107 4.69352 8.02588 5.39217 8.02588 6.35368C8.02588 7.35669 7.27189 8.06917 6.19279 8.06917Z" fill="white"/>
</g>
<defs>
<clipPath id="clip0_40002078_2432">
<rect width="32" height="32" rx="5" fill="white"/>
</clipPath>
</defs>
</svg>
