<svg width="430" height="506" viewBox="0 0 430 506" fill="none" xmlns="http://www.w3.org/2000/svg">
<g filter="url(#filter0_f_40002817_51445)">
<circle cx="215" cy="252.8" r="138" fill="#E4D0E5"/>
</g>
<g filter="url(#filter1_d_40002817_51445)">
<ellipse cx="215" cy="378.802" rx="114" ry="34" fill="white"/>
<path d="M215 346.802C246.343 346.802 274.641 350.593 295.039 356.677C305.25 359.722 313.368 363.31 318.889 367.202C324.463 371.133 327 375.082 327 378.802C327 382.521 324.463 386.471 318.889 390.401C313.368 394.294 305.25 397.881 295.039 400.927C274.641 407.01 246.343 410.802 215 410.802C183.658 410.802 155.359 407.01 134.962 400.927C124.75 397.881 116.632 394.294 111.111 390.401C105.537 386.471 103 382.521 103 378.802C103 375.082 105.537 371.133 111.111 367.202C116.632 363.31 124.75 359.722 134.962 356.677C155.359 350.593 183.658 346.802 215 346.802Z" stroke="#E9E2F3" stroke-opacity="0.5" stroke-width="4"/>
</g>
<ellipse cx="215" cy="376.803" rx="84" ry="20" fill="#EDDCF8" fill-opacity="0.5"/>
<ellipse cx="215" cy="376.304" rx="62" ry="14.5" fill="#E4C8F6" fill-opacity="0.5"/>
<ellipse cx="215.002" cy="374.302" rx="46" ry="9.5" fill="#D8A9E4" fill-opacity="0.5"/>
<path d="M347.575 312.402C347.492 312.402 347.404 312.377 347.313 312.327C347.221 312.277 347.158 312.202 347.125 312.102L346.325 310.352L344.575 309.552C344.475 309.518 344.4 309.456 344.35 309.364C344.3 309.272 344.275 309.185 344.275 309.102C344.275 309.018 344.3 308.931 344.35 308.839C344.4 308.747 344.475 308.685 344.575 308.652L346.325 307.852L347.125 306.102C347.158 306.002 347.221 305.927 347.313 305.877C347.404 305.827 347.492 305.802 347.575 305.802C347.658 305.802 347.746 305.827 347.838 305.877C347.929 305.927 347.992 306.002 348.025 306.102L348.825 307.852L350.575 308.652C350.675 308.685 350.75 308.747 350.8 308.839C350.85 308.931 350.875 309.018 350.875 309.102C350.875 309.185 350.85 309.272 350.8 309.364C350.75 309.456 350.675 309.518 350.575 309.552L348.825 310.352L348.025 312.102C347.992 312.202 347.929 312.277 347.838 312.327C347.746 312.377 347.658 312.402 347.575 312.402ZM347.575 326.402C347.492 326.402 347.404 326.377 347.313 326.327C347.221 326.277 347.158 326.202 347.125 326.102L346.325 324.352L344.575 323.552C344.475 323.518 344.4 323.456 344.35 323.364C344.3 323.272 344.275 323.185 344.275 323.102C344.275 323.018 344.3 322.931 344.35 322.84C344.4 322.748 344.475 322.685 344.575 322.652L346.325 321.852L347.125 320.102C347.158 320.002 347.221 319.927 347.313 319.877C347.404 319.827 347.492 319.802 347.575 319.802C347.658 319.802 347.746 319.827 347.838 319.877C347.929 319.927 347.992 320.002 348.025 320.102L348.825 321.852L350.575 322.652C350.675 322.685 350.75 322.748 350.8 322.84C350.85 322.931 350.875 323.018 350.875 323.102C350.875 323.185 350.85 323.272 350.8 323.364C350.75 323.456 350.675 323.518 350.575 323.552L348.825 324.352L348.025 326.102C347.992 326.202 347.929 326.277 347.838 326.327C347.746 326.377 347.658 326.402 347.575 326.402ZM337.575 322.677C337.392 322.677 337.217 322.627 337.05 322.527C336.883 322.427 336.758 322.285 336.675 322.102L335.075 318.602L331.575 317.002C331.392 316.918 331.25 316.793 331.15 316.627C331.05 316.46 331 316.285 331 316.102C331 315.918 331.05 315.743 331.15 315.577C331.25 315.41 331.392 315.285 331.575 315.202L335.075 313.602L336.675 310.102C336.758 309.918 336.883 309.777 337.05 309.677C337.217 309.577 337.392 309.527 337.575 309.527C337.758 309.527 337.933 309.577 338.1 309.677C338.267 309.777 338.392 309.918 338.475 310.102L340.075 313.602L343.575 315.202C343.758 315.285 343.9 315.41 344 315.577C344.1 315.743 344.15 315.918 344.15 316.102C344.15 316.285 344.1 316.46 344 316.627C343.9 316.793 343.758 316.918 343.575 317.002L340.075 318.602L338.475 322.102C338.392 322.285 338.267 322.427 338.1 322.527C337.933 322.627 337.758 322.677 337.575 322.677Z" fill="white"/>
<path d="M315.3 244.402C315.217 244.402 315.129 244.377 315.038 244.327C314.946 244.277 314.883 244.202 314.85 244.102L314.05 242.352L312.3 241.552C312.2 241.518 312.125 241.456 312.075 241.364C312.025 241.272 312 241.185 312 241.102C312 241.018 312.025 240.931 312.075 240.839C312.125 240.747 312.2 240.685 312.3 240.652L314.05 239.852L314.85 238.102C314.883 238.002 314.946 237.927 315.038 237.877C315.129 237.827 315.217 237.802 315.3 237.802C315.383 237.802 315.471 237.827 315.563 237.877C315.654 237.927 315.717 238.002 315.75 238.102L316.55 239.852L318.3 240.652C318.4 240.685 318.475 240.747 318.525 240.839C318.575 240.931 318.6 241.018 318.6 241.102C318.6 241.185 318.575 241.272 318.525 241.364C318.475 241.456 318.4 241.518 318.3 241.552L316.55 242.352L315.75 244.102C315.717 244.202 315.654 244.277 315.563 244.327C315.471 244.377 315.383 244.402 315.3 244.402Z" fill="white"/>
<path d="M104.3 315.402C104.217 315.402 104.129 315.377 104.038 315.327C103.946 315.277 103.883 315.202 103.85 315.102L103.05 313.352L101.3 312.552C101.2 312.518 101.125 312.456 101.075 312.364C101.025 312.272 101 312.185 101 312.102C101 312.018 101.025 311.931 101.075 311.839C101.125 311.747 101.2 311.685 101.3 311.652L103.05 310.852L103.85 309.102C103.883 309.002 103.946 308.927 104.038 308.877C104.129 308.827 104.217 308.802 104.3 308.802C104.383 308.802 104.471 308.827 104.563 308.877C104.654 308.927 104.717 309.002 104.75 309.102L105.55 310.852L107.3 311.652C107.4 311.685 107.475 311.747 107.525 311.839C107.575 311.931 107.6 312.018 107.6 312.102C107.6 312.185 107.575 312.272 107.525 312.364C107.475 312.456 107.4 312.518 107.3 312.552L105.55 313.352L104.75 315.102C104.717 315.202 104.654 315.277 104.563 315.327C104.471 315.377 104.383 315.402 104.3 315.402Z" fill="white"/>
<path d="M104.575 162.402C104.492 162.402 104.404 162.377 104.313 162.327C104.221 162.277 104.158 162.202 104.125 162.102L103.325 160.352L101.575 159.552C101.475 159.518 101.4 159.456 101.35 159.364C101.3 159.272 101.275 159.185 101.275 159.102C101.275 159.018 101.3 158.931 101.35 158.839C101.4 158.747 101.475 158.685 101.575 158.652L103.325 157.852L104.125 156.102C104.158 156.002 104.221 155.927 104.313 155.877C104.404 155.827 104.492 155.802 104.575 155.802C104.658 155.802 104.746 155.827 104.838 155.877C104.929 155.927 104.992 156.002 105.025 156.102L105.825 157.852L107.575 158.652C107.675 158.685 107.75 158.747 107.8 158.839C107.85 158.931 107.875 159.018 107.875 159.102C107.875 159.185 107.85 159.272 107.8 159.364C107.75 159.456 107.675 159.518 107.575 159.552L105.825 160.352L105.025 162.102C104.992 162.202 104.929 162.277 104.838 162.327C104.746 162.377 104.658 162.402 104.575 162.402ZM104.575 176.402C104.492 176.402 104.404 176.377 104.313 176.327C104.221 176.277 104.158 176.202 104.125 176.102L103.325 174.352L101.575 173.552C101.475 173.518 101.4 173.456 101.35 173.364C101.3 173.272 101.275 173.185 101.275 173.102C101.275 173.018 101.3 172.931 101.35 172.84C101.4 172.748 101.475 172.685 101.575 172.652L103.325 171.852L104.125 170.102C104.158 170.002 104.221 169.927 104.313 169.877C104.404 169.827 104.492 169.802 104.575 169.802C104.658 169.802 104.746 169.827 104.838 169.877C104.929 169.927 104.992 170.002 105.025 170.102L105.825 171.852L107.575 172.652C107.675 172.685 107.75 172.748 107.8 172.84C107.85 172.931 107.875 173.018 107.875 173.102C107.875 173.185 107.85 173.272 107.8 173.364C107.75 173.456 107.675 173.518 107.575 173.552L105.825 174.352L105.025 176.102C104.992 176.202 104.929 176.277 104.838 176.327C104.746 176.377 104.658 176.402 104.575 176.402ZM94.575 172.677C94.3917 172.677 94.2167 172.627 94.05 172.527C93.8833 172.427 93.7583 172.285 93.675 172.102L92.075 168.602L88.575 167.002C88.3917 166.918 88.25 166.793 88.15 166.627C88.05 166.46 88 166.285 88 166.102C88 165.918 88.05 165.743 88.15 165.577C88.25 165.41 88.3917 165.285 88.575 165.202L92.075 163.602L93.675 160.102C93.7583 159.918 93.8833 159.777 94.05 159.677C94.2167 159.577 94.3917 159.527 94.575 159.527C94.7583 159.527 94.9333 159.577 95.1 159.677C95.2667 159.777 95.3917 159.918 95.475 160.102L97.075 163.602L100.575 165.202C100.758 165.285 100.9 165.41 101 165.577C101.1 165.743 101.15 165.918 101.15 166.102C101.15 166.285 101.1 166.46 101 166.627C100.9 166.793 100.758 166.918 100.575 167.002L97.075 168.602L95.475 172.102C95.3917 172.285 95.2667 172.427 95.1 172.527C94.9333 172.627 94.7583 172.677 94.575 172.677Z" fill="white"/>
<defs>
<filter id="filter0_f_40002817_51445" x="-37.8" y="-0.000205994" width="505.6" height="505.6" filterUnits="userSpaceOnUse" color-interpolation-filters="sRGB">
<feFlood flood-opacity="0" result="BackgroundImageFix"/>
<feBlend mode="normal" in="SourceGraphic" in2="BackgroundImageFix" result="shape"/>
<feGaussianBlur stdDeviation="57.4" result="effect1_foregroundBlur_40002817_51445"/>
</filter>
<filter id="filter1_d_40002817_51445" x="91.4" y="339.202" width="247.2" height="87.2" filterUnits="userSpaceOnUse" color-interpolation-filters="sRGB">
<feFlood flood-opacity="0" result="BackgroundImageFix"/>
<feColorMatrix in="SourceAlpha" type="matrix" values="0 0 0 0 0 0 0 0 0 0 0 0 0 0 0 0 0 0 127 0" result="hardAlpha"/>
<feOffset dy="4"/>
<feGaussianBlur stdDeviation="4.8"/>
<feComposite in2="hardAlpha" operator="out"/>
<feColorMatrix type="matrix" values="0 0 0 0 0.105882 0 0 0 0 0.0784314 0 0 0 0 0.164706 0 0 0 0.15 0"/>
<feBlend mode="normal" in2="BackgroundImageFix" result="effect1_dropShadow_40002817_51445"/>
<feBlend mode="normal" in="SourceGraphic" in2="effect1_dropShadow_40002817_51445" result="shape"/>
</filter>
</defs>
</svg>
