<svg width="24" height="24" viewBox="0 0 24 24" fill="none" xmlns="http://www.w3.org/2000/svg">
<rect width="24" height="24" rx="4.8" fill="white"/>
<rect x="4.63086" y="6.31543" width="15.1579" height="13.0526" rx="0.842105" fill="#D8D3EC"/>
<path d="M9.68359 13.4735L11.7889 15.5788L15.1573 12.4209" stroke="white" stroke-width="1.26316" stroke-linecap="round"/>
<mask id="mask0_1187_11771" style="mask-type:alpha" maskUnits="userSpaceOnUse" x="4" y="4" width="16" height="6">
<path d="M16.6299 4.62891C16.9787 4.62891 17.2617 4.91193 17.2617 5.26074V6.31348H18.9463C19.4113 6.31348 19.789 6.69028 19.7891 7.15527V9.68164H4.63086V7.15527C4.63096 6.69034 5.00773 6.31358 5.47266 6.31348H7.15723V5.26074C7.15723 4.91202 7.43939 4.62905 7.78809 4.62891C8.1369 4.62891 8.41992 4.91193 8.41992 5.26074V6.31348H15.999V5.26074C15.999 4.91202 16.2812 4.62904 16.6299 4.62891Z" fill="url(#paint0_linear_1187_11771)"/>
</mask>
<g mask="url(#mask0_1187_11771)">
<rect x="4.21094" y="0.419922" width="15.7714" height="15.7714" fill="url(#paint1_linear_1187_11771)"/>
</g>
<defs>
<linearGradient id="paint0_linear_1187_11771" x1="7.65499" y1="5.20137" x2="9.00274" y2="10.8477" gradientUnits="userSpaceOnUse">
<stop stop-color="#5B6ABD"/>
<stop offset="0.91" stop-color="#C89FEB"/>
</linearGradient>
<linearGradient id="paint1_linear_1187_11771" x1="7.35745" y1="2.20683" x2="16.1755" y2="14.521" gradientUnits="userSpaceOnUse">
<stop stop-color="#5B6ABD"/>
<stop offset="0.91" stop-color="#C89FEB"/>
</linearGradient>
</defs>
</svg>
