<svg xmlns="http://www.w3.org/2000/svg" width="24" height="24" viewBox="0 0 24 24" fill="none">
  <rect width="24" height="24" rx="4.8" fill="white"/>
  <rect x="4.63159" y="6.31543" width="15.1579" height="13.0526" rx="0.842105" fill="#D8D3EC"/>
  <path d="M9.68433 13.473L11.7896 15.5783L15.158 12.4204" stroke="white" stroke-width="1.26316" stroke-linecap="round"/>
  <mask id="mask0_40002817_51564" style="mask-type:alpha" maskUnits="userSpaceOnUse" x="4" y="4" width="16" height="6">
    <path d="M16.6307 4.62891C16.9795 4.62891 17.2626 4.91193 17.2626 5.26074V6.31348H18.9471C19.4122 6.31348 19.7898 6.69028 19.7899 7.15527V9.68164H4.63171V7.15527C4.63182 6.69034 5.00858 6.31358 5.47351 6.31348H7.15808V5.26074C7.15808 4.91207 7.44032 4.62914 7.78894 4.62891C8.13775 4.62891 8.42078 4.91193 8.42078 5.26074V6.31348H15.9999V5.26074C15.9999 4.91207 16.2821 4.62914 16.6307 4.62891Z" fill="url(#paint0_linear_40002817_51564)"/>
  </mask>
  <g mask="url(#mask0_40002817_51564)">
    <rect x="4.21094" y="0.419434" width="15.7714" height="15.7714" fill="url(#paint1_linear_40002817_51564)"/>
  </g>
  <defs>
    <linearGradient id="paint0_linear_40002817_51564" x1="7.65584" y1="5.20137" x2="9.00359" y2="10.8477" gradientUnits="userSpaceOnUse">
      <stop stop-color="#5B6ABD"/>
      <stop offset="0.91" stop-color="#C89FEB"/>
    </linearGradient>
    <linearGradient id="paint1_linear_40002817_51564" x1="7.35745" y1="2.20634" x2="16.1755" y2="14.5205" gradientUnits="userSpaceOnUse">
      <stop stop-color="#5B6ABD"/>
      <stop offset="0.91" stop-color="#C89FEB"/>
    </linearGradient>
  </defs>
</svg>