<svg width="24" height="24" viewBox="0 0 24 24" fill="none" xmlns="http://www.w3.org/2000/svg">
<path d="M20.3467 13.1263V13.3875L20.5612 13.5367L23.2884 15.434C23.2878 15.4425 23.2866 15.4522 23.2846 15.4628C23.2805 15.4845 23.2741 15.504 23.2674 15.5193L20.8899 19.68L20.883 19.692L20.8828 19.6925C20.8769 19.6968 20.8666 19.7027 20.8526 19.7073C20.8387 19.712 20.8269 19.7134 20.8197 19.7136L20.813 19.7102L20.7937 19.7025L17.8105 18.5092L17.5399 18.401L17.3124 18.583C16.7645 19.0214 16.0983 19.3567 15.3726 19.7195L15.1413 19.8352L15.102 20.0907L14.626 23.1845C14.6216 23.1884 14.6164 23.1927 14.61 23.1975C14.5862 23.2154 14.5589 23.2303 14.5349 23.2396C14.5249 23.2435 14.5175 23.2456 14.5133 23.2466H9.74904C9.69745 23.2466 9.66667 23.2338 9.65139 23.2246L9.64658 23.1933L9.16926 20.0907L9.12994 19.8352L8.89868 19.7195C8.17291 19.3567 7.50673 19.0214 6.95882 18.583L6.7313 18.401L6.46078 18.5092L3.49317 19.6963C3.40421 19.7239 3.35561 19.7162 3.33701 19.7115C3.33456 19.7109 3.33225 19.7102 3.33007 19.7096L1.00289 15.637C0.985427 15.5999 0.982701 15.5808 0.982356 15.5751C0.982823 15.5738 0.983747 15.5717 0.985456 15.5684C0.989462 15.5609 0.998798 15.5458 1.01865 15.524L3.50052 13.5149L3.76984 13.2969L3.66026 12.9681C3.57122 12.701 3.56659 12.428 3.56659 11.933C3.56659 11.7353 3.59104 11.5587 3.62044 11.3676C3.62279 11.3524 3.6252 11.3368 3.62766 11.321C3.65426 11.1499 3.68592 10.9464 3.68592 10.7397V10.492L3.48894 10.342L1.01418 8.45642C0.968183 8.40536 0.932798 8.34721 0.911939 8.29866L3.2261 4.24887C3.29343 4.18795 3.33491 4.16667 3.35899 4.15865C3.37407 4.15362 3.40795 4.14367 3.49029 4.16881L6.33488 5.35405L6.58189 5.45697L6.80454 5.30854C6.96976 5.19839 7.12302 5.09285 7.26812 4.99292C7.79712 4.6286 8.21765 4.33898 8.7139 4.17356L9.00537 4.07641L9.05039 3.77249L9.52602 0.562024C9.53037 0.5582 9.53564 0.553869 9.54193 0.549155C9.56578 0.531262 9.59303 0.516362 9.61704 0.507024C9.62708 0.503123 9.63443 0.501018 9.63869 0.5H14.3854L14.3677 0.553207L14.3861 0.672677L14.8634 3.77525L14.9027 4.0308L15.134 4.14643C15.8597 4.50932 16.5259 4.84462 17.0738 5.28295L17.3013 5.46496L17.5719 5.35675L20.5395 4.16971C20.6284 4.14206 20.677 4.14981 20.6956 4.15446C20.6981 4.15507 20.7004 4.15573 20.7026 4.15642L23.0298 8.22901C23.0472 8.26609 23.0499 8.28514 23.0503 8.29086C23.0498 8.29211 23.0489 8.29428 23.0472 8.29749C23.0432 8.30502 23.0339 8.32007 23.014 8.3419L20.5321 10.351L20.2628 10.5691L20.3724 10.8978C20.4614 11.1649 20.466 11.4379 20.466 11.933C20.466 12.1306 20.4416 12.3072 20.4122 12.4983C20.4099 12.5136 20.4074 12.5291 20.405 12.5449C20.3784 12.716 20.3467 12.9195 20.3467 13.1263ZM7.33981 11.933C7.33981 14.4764 9.47294 16.6095 12.0163 16.6095C14.5597 16.6095 16.6929 14.4764 16.6929 11.933C16.6929 9.38956 14.5597 7.25643 12.0163 7.25643C9.47294 7.25643 7.33981 9.38956 7.33981 11.933Z" stroke="#7F6D83"/>
</svg>
