<svg width="36" height="36" viewBox="0 0 36 36" fill="none" xmlns="http://www.w3.org/2000/svg">
<mask id="mask0_40002180_5659" style="mask-type:alpha" maskUnits="userSpaceOnUse" x="7" y="7" width="22" height="22">
<path d="M25.5823 19.4028C25.5823 19.0868 25.6892 18.7709 25.6892 18.3496C25.6892 17.9284 25.6892 17.6124 25.5823 17.2964L27.8272 15.506C28.041 15.2954 28.041 15.0848 27.9341 14.8741L25.7961 11.188C25.6892 11.0827 25.4754 10.9774 25.1546 11.0827L22.4821 12.1359C21.9476 11.7146 21.3062 11.3987 20.6647 11.0827L20.2371 8.34446C20.344 8.02851 20.0233 7.81787 19.8095 7.81787H15.5334C15.3196 7.81787 14.9989 8.02851 14.9989 8.23914L14.5713 11.0827C13.9299 11.2933 13.3954 11.7146 12.7539 12.1359L10.1883 11.0827C9.86756 10.9774 9.65376 11.0827 9.43991 11.2933L7.30186 14.9795C7.19495 15.0848 7.30186 15.4007 7.51566 15.6114L9.76062 17.2964C9.76062 17.6124 9.65372 17.9284 9.65372 18.3496C9.65372 18.7709 9.65372 19.0868 9.76062 19.4028L7.51566 21.1932C7.30186 21.4039 7.30186 21.6145 7.40876 21.8251L9.54681 25.5113C9.65372 25.6166 9.86748 25.7219 10.1882 25.6166L12.8608 24.5634C13.3953 24.9847 14.0367 25.3006 14.6781 25.6166L15.1058 28.3548C15.1058 28.5655 15.3196 28.7761 15.6403 28.7761H19.9164C20.1302 28.7761 20.4509 28.5654 20.4509 28.3548L20.8785 25.6166C21.5199 25.3006 22.1613 24.9847 22.6958 24.5634L25.3684 25.6166C25.5823 25.7219 25.9029 25.6166 26.0099 25.4059L28.1479 21.7198C28.2548 21.5091 28.2548 21.1932 28.041 21.0879L25.5823 19.4028ZM17.6715 22.0357C15.6403 22.0357 13.9299 20.3507 13.9299 18.3496C13.9299 16.3486 15.6403 14.6635 17.6715 14.6635C19.7026 14.6635 21.4131 16.3486 21.4131 18.3496C21.4131 20.3507 19.7026 22.0357 17.6715 22.0357Z" fill="#C0B9DB"/>
</mask>
<g mask="url(#mask0_40002180_5659)">
<rect x="6.58548" y="7.81787" width="21.5371" height="21.2177" fill="#655993"/>
</g>
</svg>
