<svg width="35" height="35" viewBox="0 0 35 35" fill="none" xmlns="http://www.w3.org/2000/svg">
<mask id="mask0_40001907_16033" style="mask-type:alpha" maskUnits="userSpaceOnUse" x="7" y="7" width="21" height="21">
<path d="M25.3589 18.608C25.3589 18.2914 25.466 17.9749 25.466 17.5527C25.466 17.1306 25.466 16.8141 25.3589 16.4975L27.6083 14.7035C27.8225 14.4924 27.8225 14.2814 27.7154 14.0703L25.5731 10.3769C25.466 10.2714 25.2518 10.1658 24.9304 10.2714L22.2525 11.3266C21.7169 10.9045 21.0742 10.5879 20.4315 10.2714L20.0031 7.52764C20.1102 7.21105 19.7888 7 19.5746 7H15.29C15.0757 7 14.7544 7.21105 14.7544 7.42211L14.3259 10.2714C13.6832 10.4824 13.1477 10.9045 12.505 11.3266L9.93419 10.2714C9.61284 10.1658 9.39861 10.2714 9.18434 10.4824L7.04202 14.1759C6.93491 14.2814 7.04202 14.598 7.25625 14.809L9.50569 16.4975C9.50569 16.8141 9.39857 17.1306 9.39857 17.5527C9.39857 17.9749 9.39857 18.2914 9.50569 18.608L7.25625 20.402C7.04202 20.6131 7.04202 20.8241 7.14914 21.0352L9.29145 24.7287C9.39857 24.8342 9.61276 24.9397 9.93415 24.8342L12.612 23.7789C13.1476 24.201 13.7903 24.5176 14.433 24.8342L14.8615 27.5779C14.8615 27.7889 15.0757 28 15.3971 28H19.6817C19.896 28 20.2173 27.7889 20.2173 27.5779L20.6457 24.8342C21.2884 24.5176 21.9311 24.201 22.4667 23.7789L25.1446 24.8342C25.3589 24.9397 25.6802 24.8342 25.7873 24.6231L27.9296 20.9296C28.0368 20.7186 28.0368 20.402 27.8225 20.2965L25.3589 18.608ZM17.4323 21.2462C15.3971 21.2462 13.6832 19.5578 13.6832 17.5527C13.6832 15.5477 15.3971 13.8593 17.4323 13.8593C19.4675 13.8593 21.1813 15.5477 21.1813 17.5527C21.1813 19.5578 19.4675 21.2462 17.4323 21.2462Z" fill="#C0B9DB"/>
</mask>
<g mask="url(#mask0_40001907_16033)">
<rect x="6.32422" y="7" width="21.5801" height="21.26" fill="#C0B9DB"/>
</g>
</svg>