<svg width="22" height="21" viewBox="0 0 22 21" fill="none" xmlns="http://www.w3.org/2000/svg">
<path d="M2.19251 0.592118C2.35342 0.231929 2.71105 0 3.10555 0H19.1383C19.5522 0 19.9234 0.255063 20.0718 0.641514L21.9375 5.5L16.457 6H5.45703L0 5.5L2.19251 0.592118Z" fill="#D8D3EC"/>
<path d="M0.000191451 5.5001C0.000191388 6.22657 0.28878 6.92328 0.802473 7.43698C1.31617 7.95067 2.01288 8.23926 2.73935 8.23926C3.46582 8.23926 4.16254 7.95067 4.67623 7.43698C5.18993 6.92328 5.47852 6.22657 5.47852 5.5001L2.73935 5.5001L0.000191451 5.5001Z" fill="#D8D3EC"/>
<path d="M5.47871 5.5001C5.47871 6.22657 5.7673 6.92328 6.28099 7.43698C6.79468 7.95067 7.4914 8.23926 8.21787 8.23926C8.94434 8.23926 9.64106 7.95067 10.1547 7.43698C10.6684 6.92328 10.957 6.22657 10.957 5.5001L8.21787 5.5001L5.47871 5.5001Z" fill="#D8D3EC"/>
<path d="M10.9572 5.5001C10.9572 6.22657 11.2458 6.92328 11.7595 7.43698C12.2732 7.95067 12.9699 8.23926 13.6964 8.23926C14.4229 8.23926 15.1196 7.95067 15.6333 7.43698C16.147 6.92328 16.4355 6.22657 16.4355 5.5001L13.6964 5.5001L10.9572 5.5001Z" fill="#D8D3EC"/>
<path d="M16.4357 5.5001C16.4357 6.22657 16.7243 6.92328 17.238 7.43698C17.7517 7.95067 18.4484 8.23926 19.1749 8.23926C19.9014 8.23926 20.5981 7.95067 21.1118 7.43698C21.6255 6.92328 21.9141 6.22657 21.9141 5.5001L19.1749 5.5001L16.4357 5.5001Z" fill="#D8D3EC"/>
<path fill-rule="evenodd" clip-rule="evenodd" d="M16.2819 8.6446C16.3356 8.59855 16.3876 8.55121 16.4376 8.50267C16.4877 8.55121 16.5396 8.59855 16.5934 8.6446C17.2783 9.23095 18.2073 9.56035 19.1759 9.56035C19.8223 9.56035 20.4509 9.41368 21.0012 9.14186V19.5024C21.0012 20.0547 20.5535 20.5024 20.0012 20.5024H1.91406C1.36178 20.5024 0.914062 20.0547 0.914062 19.5024V9.14042C1.46506 9.41316 2.09482 9.56035 2.74231 9.56035C3.71094 9.56035 4.6399 9.23095 5.32482 8.6446C5.37861 8.59855 5.43055 8.55121 5.4806 8.50267C5.53064 8.55121 5.58258 8.59855 5.63637 8.6446C6.32129 9.23095 7.25025 9.56035 8.21888 9.56035C9.1875 9.56035 10.1165 9.23095 10.8014 8.6446C10.8559 8.59795 10.9085 8.54998 10.9591 8.50078C11.0098 8.54998 11.0623 8.59795 11.1168 8.6446C11.8018 9.23095 12.7307 9.56035 13.6993 9.56035C14.668 9.56035 15.5969 9.23095 16.2819 8.6446ZM17.1357 7.99609H17.1332C17.1674 8.02878 17.2026 8.06073 17.239 8.09189C17.6337 8.42974 18.1364 8.65386 18.6776 8.73958C18.1375 8.65352 17.6359 8.4296 17.2419 8.09235C17.2054 8.06105 17.1699 8.02894 17.1357 7.99609ZM15.6352 8.09235C15.4437 8.25629 15.2268 8.39344 14.9924 8.501C15.2272 8.39337 15.4445 8.25606 15.6362 8.09189C15.6726 8.06073 15.7079 8.02878 15.742 7.99609H15.7415C15.7072 8.02894 15.6718 8.06105 15.6352 8.09235ZM6.17863 7.99609H6.17621C6.21033 8.02878 6.2456 8.06073 6.282 8.09189C6.67665 8.42974 7.17933 8.65386 7.72053 8.73958C7.18043 8.65352 6.67884 8.4296 6.28489 8.09235C6.24832 8.06105 6.21289 8.02894 6.17863 7.99609ZM4.67819 8.09235C4.48669 8.25629 4.26976 8.39344 4.03534 8.501C4.27015 8.39337 4.48743 8.25606 4.6792 8.09189C4.7156 8.06073 4.75087 8.02878 4.78498 7.99609H4.78446C4.75019 8.02894 4.71476 8.06105 4.67819 8.09235ZM8.95703 15.5C8.40475 15.5 7.95703 15.9477 7.95703 16.5V20.5H13.957V16.5C13.957 15.9477 13.5093 15.5 12.957 15.5H8.95703Z" fill="#D8D3EC"/>
</svg>
