<svg width="35" height="35" viewBox="0 0 35 35" fill="none" xmlns="http://www.w3.org/2000/svg">
<path d="M9.19251 8.59212C9.35342 8.23193 9.71105 8 10.1055 8H26.1383C26.5522 8 26.9234 8.25506 27.0718 8.64151L28.9375 13.5L23.457 14H12.457L7 13.5L9.19251 8.59212Z" fill="#C0B9DB"/>
<path d="M7.00019 13.5001C7.00019 14.2266 7.28878 14.9233 7.80247 15.437C8.31617 15.9507 9.01288 16.2393 9.73935 16.2393C10.4658 16.2393 11.1625 15.9507 11.6762 15.437C12.1899 14.9233 12.4785 14.2266 12.4785 13.5001L9.73935 13.5001L7.00019 13.5001Z" fill="#C0B9DB"/>
<path d="M12.4787 13.5001C12.4787 14.2266 12.7673 14.9233 13.281 15.437C13.7947 15.9507 14.4914 16.2393 15.2179 16.2393C15.9443 16.2393 16.6411 15.9507 17.1547 15.437C17.6684 14.9233 17.957 14.2266 17.957 13.5001L15.2179 13.5001L12.4787 13.5001Z" fill="#C0B9DB"/>
<path d="M17.9572 13.5001C17.9572 14.2266 18.2458 14.9233 18.7595 15.437C19.2732 15.9507 19.9699 16.2393 20.6964 16.2393C21.4229 16.2393 22.1196 15.9507 22.6333 15.437C23.147 14.9233 23.4355 14.2266 23.4355 13.5001L20.6964 13.5001L17.9572 13.5001Z" fill="#C0B9DB"/>
<path d="M23.4357 13.5001C23.4357 14.2266 23.7243 14.9233 24.238 15.437C24.7517 15.9507 25.4484 16.2393 26.1749 16.2393C26.9014 16.2393 27.5981 15.9507 28.1118 15.437C28.6255 14.9233 28.9141 14.2266 28.9141 13.5001L26.1749 13.5001L23.4357 13.5001Z" fill="#C0B9DB"/>
<path fill-rule="evenodd" clip-rule="evenodd" d="M23.2819 16.6446C23.3356 16.5986 23.3876 16.5512 23.4376 16.5027C23.4877 16.5512 23.5396 16.5986 23.5934 16.6446C24.2783 17.2309 25.2073 17.5604 26.1759 17.5604C26.8223 17.5604 27.4509 17.4137 28.0012 17.1419V27.5024C28.0012 28.0547 27.5535 28.5024 27.0012 28.5024H8.91406C8.36178 28.5024 7.91406 28.0547 7.91406 27.5024V17.1404C8.46506 17.4132 9.09482 17.5604 9.74231 17.5604C10.7109 17.5604 11.6399 17.2309 12.3248 16.6446C12.3786 16.5986 12.4305 16.5512 12.4806 16.5027C12.5306 16.5512 12.5826 16.5986 12.6364 16.6446C13.3213 17.2309 14.2502 17.5604 15.2189 17.5604C16.1875 17.5604 17.1165 17.2309 17.8014 16.6446C17.8559 16.598 17.9085 16.55 17.9591 16.5008C18.0098 16.55 18.0623 16.598 18.1168 16.6446C18.8018 17.2309 19.7307 17.5604 20.6993 17.5604C21.668 17.5604 22.5969 17.2309 23.2819 16.6446ZM24.1357 15.9961H24.1332C24.1674 16.0288 24.2026 16.0607 24.239 16.0919C24.6337 16.4297 25.1364 16.6539 25.6776 16.7396C25.1375 16.6535 24.6359 16.4296 24.2419 16.0924C24.2054 16.061 24.1699 16.0289 24.1357 15.9961ZM22.6352 16.0924C22.4437 16.2563 22.2268 16.3934 21.9924 16.501C22.2272 16.3934 22.4445 16.2561 22.6362 16.0919C22.6726 16.0607 22.7079 16.0288 22.742 15.9961H22.7415C22.7072 16.0289 22.6718 16.061 22.6352 16.0924ZM13.1786 15.9961H13.1762C13.2103 16.0288 13.2456 16.0607 13.282 16.0919C13.6766 16.4297 14.1793 16.6539 14.7205 16.7396C14.1804 16.6535 13.6788 16.4296 13.2849 16.0924C13.2483 16.061 13.2129 16.0289 13.1786 15.9961ZM11.6782 16.0924C11.4867 16.2563 11.2698 16.3934 11.0353 16.501C11.2702 16.3934 11.4874 16.2561 11.6792 16.0919C11.7156 16.0607 11.7509 16.0288 11.785 15.9961H11.7845C11.7502 16.0289 11.7148 16.061 11.6782 16.0924ZM15.957 23.5C15.4047 23.5 14.957 23.9477 14.957 24.5V28.5H20.957V24.5C20.957 23.9477 20.5093 23.5 19.957 23.5H15.957Z" fill="#C0B9DB"/>
</svg>