<svg width="36" height="36" viewBox="0 0 36 36" fill="none" xmlns="http://www.w3.org/2000/svg">
<path d="M9.66691 9.40881C9.8275 9.04934 10.1844 8.81787 10.5781 8.81787H26.5789C26.9921 8.81787 27.3625 9.07243 27.5106 9.45811L29.3726 14.3069L23.9031 14.8059H12.9249L7.47876 14.3069L9.66691 9.40881Z" fill="#655993"/>
<path d="M7.47874 14.3071C7.47874 15.0321 7.76676 15.7274 8.27943 16.2401C8.7921 16.7528 9.48743 17.0408 10.2125 17.0408C10.9375 17.0408 11.6328 16.7528 12.1455 16.2401C12.6582 15.7274 12.9462 15.0321 12.9462 14.3071L10.2125 14.3071L7.47874 14.3071Z" fill="#655993"/>
<path d="M12.9462 14.3071C12.9462 15.0321 13.2342 15.7274 13.7469 16.2401C14.2596 16.7528 14.9549 17.0408 15.6799 17.0408C16.4049 17.0408 17.1003 16.7528 17.6129 16.2401C18.1256 15.7274 18.4136 15.0321 18.4136 14.3071L15.6799 14.3071L12.9462 14.3071Z" fill="#655993"/>
<path d="M18.4136 14.3071C18.4136 15.0321 18.7016 15.7274 19.2143 16.2401C19.727 16.7528 20.4223 17.0408 21.1473 17.0408C21.8724 17.0408 22.5677 16.7528 23.0804 16.2401C23.593 15.7274 23.881 15.0321 23.881 14.3071L21.1473 14.3071L18.4136 14.3071Z" fill="#655993"/>
<path d="M23.881 14.3071C23.881 15.0321 24.169 15.7274 24.6817 16.2401C25.1944 16.7528 25.8897 17.0408 26.6147 17.0408C27.3398 17.0408 28.0351 16.7528 28.5478 16.2401C29.0604 15.7274 29.3484 15.0321 29.3484 14.3071L26.6147 14.3071L23.881 14.3071Z" fill="#655993"/>
<path d="M18.5736 17.4456C19.2571 18.0306 20.1842 18.3596 21.1508 18.3596C22.1173 18.3596 23.0444 18.0306 23.7279 17.4456C23.7818 17.3994 23.833 17.3507 23.8832 17.302C23.9335 17.3508 23.9853 17.3993 24.0394 17.4456C24.723 18.0306 25.65 18.3596 26.6166 18.3596C27.2618 18.3596 27.8886 18.2111 28.4379 17.9397V28.2815C28.4379 28.8327 27.991 29.2795 27.4398 29.2795H9.38904C8.83785 29.2795 8.39099 28.8327 8.39099 28.2815V17.9387C8.94092 18.2111 9.56891 18.3596 10.2152 18.3596C11.1819 18.3596 12.1098 18.0307 12.7933 17.4456C12.8471 17.3995 12.8976 17.3506 12.9476 17.302C12.998 17.3509 13.0497 17.3992 13.1039 17.4456C13.7874 18.0306 14.7144 18.3596 15.681 18.3596C16.6476 18.3596 17.5747 18.0306 18.2582 17.4456C18.3128 17.3988 18.3647 17.3493 18.4154 17.3C18.4663 17.3496 18.5188 17.3986 18.5736 17.4456ZM16.4183 24.2874C15.8671 24.2874 15.4203 24.7342 15.4203 25.2854V29.2776H21.4076V25.2854C21.4076 24.7342 20.9607 24.2874 20.4095 24.2874H16.4183ZM24.6859 16.8938C24.942 17.1131 25.2444 17.2841 25.5726 17.4006C25.2434 17.2841 24.9398 17.1137 24.683 16.8938C24.6467 16.8627 24.6116 16.8307 24.5775 16.7981H24.5844C24.6178 16.83 24.6503 16.8633 24.6859 16.8938ZM13.7513 16.8938C13.9417 17.0567 14.1572 17.1929 14.39 17.3C14.1562 17.193 13.9394 17.0573 13.7484 16.8938C13.7121 16.8627 13.677 16.8307 13.6429 16.7981H13.6498C13.6832 16.83 13.7157 16.8633 13.7513 16.8938ZM12.1488 16.8938C12.1173 16.9208 12.083 16.9445 12.0502 16.97C12.0827 16.9447 12.1166 16.9205 12.1478 16.8938C12.1834 16.8633 12.216 16.83 12.2494 16.7981H12.2543C12.2202 16.8307 12.1851 16.8627 12.1488 16.8938ZM23.0834 16.8938C23.0518 16.9208 23.0176 16.9445 22.9847 16.97C23.0174 16.9446 23.0511 16.9206 23.0824 16.8938C23.118 16.8633 23.1506 16.83 23.184 16.7981H23.1898C23.1557 16.8308 23.1198 16.8626 23.0834 16.8938ZM19.1967 16.8743C19.1679 16.8491 19.139 16.8243 19.1117 16.7981H19.1156C19.1423 16.8236 19.1686 16.8497 19.1967 16.8743Z" fill="#655993"/>
</svg>
