<svg width="35" height="25" viewBox="0 0 35 25" fill="none" xmlns="http://www.w3.org/2000/svg">
<circle cx="14.7343" cy="6.5207" r="0.853275" transform="rotate(15 14.7343 6.5207)" stroke="#7F6D83"/>
<circle cx="11.7268" cy="8.08723" r="0.607653" transform="rotate(15 11.7268 8.08723)" fill="#7F6D83" stroke="#7F6D83" stroke-width="0.0338706"/>
<circle cx="17.0625" cy="12" r="9.5" stroke="#7F6D83"/>
<mask id="path-4-inside-1_40000290_5612" fill="white">
<path fill-rule="evenodd" clip-rule="evenodd" d="M28.7031 15.6556C28.8661 15.0474 28.5431 14.3461 27.8348 13.6154C27.9241 12.8387 27.9341 12.0675 27.8705 11.3118C31.2452 13.1839 33.189 15.191 32.7723 16.7459C32.7645 16.7752 32.7559 16.8041 32.7464 16.8328C31.9197 19.4782 25.9346 20.4677 15.5439 17.499C3.56347 14.0704 0.371596 10.97 1.09724 8.26185L1.09782 8.25969L1.09853 8.25989C1.09861 8.2596 1.09868 8.25932 1.09876 8.25903C1.51789 6.6948 4.23446 5.92864 8.13007 6.0051C7.7003 6.62119 7.32544 7.28668 7.01506 7.99579C5.99354 8.27288 5.33506 8.72578 5.16797 9.34937C5.1272 9.50152 5.11685 9.65949 5.13533 9.82229C5.61537 11.5768 10.9795 13.5144 16.5198 14.999C21.8535 16.4281 26.9066 17.3185 28.3732 16.2261C28.5354 16.0554 28.647 15.8651 28.7031 15.6556Z"/>
</mask>
<path d="M27.8348 13.6154L26.8414 13.5012L26.7873 13.9715L27.1168 14.3113L27.8348 13.6154ZM28.7031 15.6556L29.669 15.9144L29.669 15.9144L28.7031 15.6556ZM27.8705 11.3118L28.3556 10.4373L26.7169 9.52828L26.8741 11.3957L27.8705 11.3118ZM32.7723 16.7459L31.8064 16.4871L31.8064 16.4871L32.7723 16.7459ZM32.7464 16.8328L31.7965 16.5204L31.7942 16.5275L31.792 16.5345L32.7464 16.8328ZM15.5439 17.499L15.2688 18.4604L15.2692 18.4605L15.5439 17.499ZM1.09724 8.26185L0.131499 8.00234L0.131313 8.00303L1.09724 8.26185ZM1.09782 8.25969L1.35654 7.29374L0.391381 7.03523L0.13208 8.00018L1.09782 8.25969ZM1.09853 8.25989L0.839809 9.22584L1.80617 9.48467L2.06459 8.5182L1.09853 8.25989ZM1.09876 8.25903L2.06468 8.51787L2.06469 8.51785L1.09876 8.25903ZM8.13007 6.0051L8.95024 6.57723L10.0211 5.04203L8.1497 5.0053L8.13007 6.0051ZM7.01506 7.99579L7.27685 8.96092L7.7391 8.83553L7.93115 8.39677L7.01506 7.99579ZM5.16797 9.34937L4.20204 9.09055L4.20204 9.09055L5.16797 9.34937ZM5.13533 9.82229L4.14171 9.93508L4.15041 10.0118L4.17078 10.0862L5.13533 9.82229ZM16.5198 14.999L16.7786 14.033L16.7786 14.033L16.5198 14.999ZM28.3732 16.2261L28.9705 17.0281L29.0392 16.9769L29.0983 16.9148L28.3732 16.2261ZM27.1168 14.3113C27.7687 14.984 27.756 15.3265 27.7372 15.3968L29.669 15.9144C29.9762 14.7683 29.3174 13.7082 28.5529 12.9194L27.1168 14.3113ZM26.8741 11.3957C26.9321 12.0859 26.923 12.7907 26.8414 13.5012L28.8283 13.7296C28.9252 12.8867 28.9361 12.0491 28.867 11.2279L26.8741 11.3957ZM33.7383 17.0048C34.0841 15.714 33.4003 14.472 32.4791 13.4707C31.5223 12.4306 30.0906 11.3998 28.3556 10.4373L27.3854 12.1863C29.0252 13.0959 30.2527 14.0046 31.0072 14.8248C31.7975 15.6839 31.8772 16.223 31.8064 16.4871L33.7383 17.0048ZM33.6964 17.1452C33.7116 17.0989 33.7256 17.0521 33.7383 17.0047L31.8064 16.4871C31.8034 16.4983 31.8001 16.5094 31.7965 16.5204L33.6964 17.1452ZM15.2692 18.4605C20.5271 19.9627 24.7455 20.487 27.8029 20.2686C29.3297 20.1596 30.6206 19.8618 31.6169 19.3655C32.6192 18.8661 33.3894 18.1277 33.7009 17.1311L31.792 16.5345C31.69 16.8606 31.4021 17.2379 30.725 17.5753C30.0418 17.9157 29.032 18.1758 27.6604 18.2737C24.9209 18.4693 20.9515 18.004 15.8187 16.5374L15.2692 18.4605ZM0.131313 8.00303C-0.11706 8.92997 -0.0197889 9.89091 0.480132 10.8339C0.965006 11.7485 1.80595 12.6066 2.98263 13.4297C5.32742 15.0698 9.25131 16.7383 15.2688 18.4604L15.8191 16.5376C9.85611 14.8311 6.19383 13.2351 4.12897 11.7908C3.10083 11.0717 2.53108 10.4326 2.24717 9.89711C1.97831 9.38997 1.94872 8.9478 2.06316 8.52067L0.131313 8.00303ZM0.13208 8.00018L0.131499 8.00234L2.06298 8.52137L2.06356 8.51921L0.13208 8.00018ZM1.35725 7.29393L1.35654 7.29374L0.839097 9.22565L0.839809 9.22584L1.35725 7.29393ZM0.132839 8.00019C0.132716 8.00065 0.132593 8.00111 0.132471 8.00157L2.06459 8.5182C2.06462 8.51809 2.06465 8.51798 2.06468 8.51787L0.132839 8.00019ZM8.1497 5.0053C6.14753 4.966 4.37576 5.13995 3.01479 5.5616C1.70566 5.9672 0.480699 6.70196 0.132834 8.00021L2.06469 8.51785C2.13595 8.25187 2.47884 7.82144 3.60668 7.47201C4.68268 7.13864 6.217 6.96775 8.11044 7.00491L8.1497 5.0053ZM7.93115 8.39677C8.21506 7.74814 8.55771 7.13993 8.95024 6.57723L7.3099 5.43298C6.8429 6.10246 6.43582 6.82523 6.09897 7.59482L7.93115 8.39677ZM6.1339 9.60819C6.15358 9.53474 6.32533 9.21902 7.27685 8.96092L6.75327 7.03067C5.66174 7.32675 4.51655 7.91682 4.20204 9.09055L6.1339 9.60819ZM6.12895 9.7095C6.12361 9.66252 6.12775 9.63113 6.1339 9.60819L4.20204 9.09055C4.12665 9.37191 4.11008 9.65646 4.14171 9.93508L6.12895 9.7095ZM16.7786 14.033C14.0267 13.2957 11.3519 12.4542 9.32093 11.5915C8.30231 11.1588 7.48237 10.736 6.90403 10.3385C6.27878 9.90872 6.12006 9.63215 6.09988 9.55839L4.17078 10.0862C4.39062 10.8897 5.08243 11.5133 5.77111 11.9867C6.50669 12.4923 7.46405 12.9757 8.53901 13.4323C10.6952 14.3482 13.4726 15.2178 16.261 15.9649L16.7786 14.033ZM27.7758 15.4242C27.6495 15.5183 27.3027 15.6535 26.5899 15.6981C25.9137 15.7405 25.0464 15.6943 24.0209 15.5659C21.9738 15.3095 19.4277 14.7428 16.7786 14.033L16.261 15.9649C18.9456 16.6842 21.5929 17.2774 23.7724 17.5503C24.8602 17.6866 25.8646 17.7475 26.715 17.6942C27.5288 17.6433 28.3636 17.4802 28.9705 17.0281L27.7758 15.4242ZM27.7372 15.3968C27.7295 15.4256 27.7102 15.4721 27.6481 15.5375L29.0983 16.9148C29.3605 16.6386 29.5645 16.3046 29.669 15.9144L27.7372 15.3968Z" fill="#7F6D83" mask="url(#path-4-inside-1_40000290_5612)"/>
</svg>