<svg width="35" height="35" viewBox="0 0 35 35" fill="none" xmlns="http://www.w3.org/2000/svg">
<path fill-rule="evenodd" clip-rule="evenodd" d="M29.4354 18.9978C29.8985 19.5759 30.0908 20.127 29.957 20.6167C29.8271 21.0925 29.4013 21.4673 28.7395 21.7391C28.4473 22.5009 28.083 23.2182 27.657 23.8849C31.1637 23.8584 33.5737 23.1083 33.9663 21.6707C34.3644 20.2128 32.6056 18.3496 29.5021 16.5844C29.5623 17.3765 29.5422 18.1846 29.4354 18.9978ZM8.7865 11.1349C5.19177 11.1392 2.71323 11.8901 2.31457 13.3498C1.92145 14.7893 3.63119 16.6239 6.66191 18.3692C6.63255 17.5848 6.68204 16.7869 6.81626 15.9858C6.37433 15.4212 6.19293 14.8831 6.32384 14.4038C6.45859 13.9104 6.91156 13.5255 7.61602 13.2516C7.93782 12.4972 8.3316 11.7895 8.7865 11.1349Z" fill="#C0B9DB"/>
<path fill-rule="evenodd" clip-rule="evenodd" d="M2.3125 13.3464C2.31232 13.3471 2.31214 13.3478 2.31196 13.3484C1.58681 16.0036 8.08445 20.0187 16.8248 22.3165C25.5652 24.6143 33.2385 24.3245 33.9637 21.6693C33.9639 21.6687 33.964 21.668 33.9642 21.6674L29.9583 20.6142C29.9581 20.6149 29.9579 20.6156 29.9578 20.6162C29.4561 22.453 23.4237 21.8835 17.3772 20.2939C11.3307 18.7044 5.84096 16.2449 6.3426 14.408C6.34279 14.4074 6.34297 14.4067 6.34315 14.4061L2.3125 13.3464Z" fill="#C0B9DB"/>
<path fill-rule="evenodd" clip-rule="evenodd" d="M27.9559 17.81C27.9559 23.2279 23.4899 27.62 17.9809 27.62C12.4718 27.62 8.00586 23.2279 8.00586 17.81C8.00586 12.3921 12.4718 8 17.9809 8C23.4899 8 27.9559 12.3921 27.9559 17.81ZM17.1785 11.7575C16.9852 12.4653 16.2437 12.8853 15.5223 12.6957C14.8008 12.506 14.3727 11.7785 14.566 11.0707C14.7593 10.3629 15.5008 9.94281 16.2223 10.1325C16.9437 10.3221 17.3718 11.0497 17.1785 11.7575ZM12.704 13.537C13.0372 13.6246 13.3796 13.4307 13.4688 13.104C13.5581 12.7773 13.3603 12.4415 13.0271 12.3539C12.6939 12.2663 12.3515 12.4602 12.2623 12.7868C12.1731 13.1135 12.3708 13.4494 12.704 13.537Z" fill="#C0B9DB"/>
</svg>