<svg width="36" height="36" viewBox="0 0 36 36" fill="none" xmlns="http://www.w3.org/2000/svg">
<path d="M9.70849 11.9464C9.25526 12.5988 8.86391 13.3045 8.54313 14.0562C7.83895 14.3296 7.38663 14.7143 7.25196 15.2071C7.1215 15.6848 7.30334 16.2194 7.743 16.7821C7.60864 17.5824 7.56146 18.3796 7.59072 19.1633C4.56556 17.4214 2.85786 15.5918 3.25024 14.1551C3.64821 12.6985 6.12145 11.9508 9.70849 11.9464ZM30.3831 17.3846C33.4803 19.1462 35.2362 21.0045 34.839 22.4595C34.4471 23.8944 32.0415 24.6406 28.5411 24.6669C28.9665 24.0009 29.3317 23.2852 29.6233 22.5241C30.2827 22.253 30.7078 21.8818 30.8373 21.4074C30.9709 20.9179 30.7781 20.3676 30.3144 19.7898C30.4206 18.9792 30.4431 18.1741 30.3831 17.3846Z" fill="#655993"/>
<path d="M34.8375 22.4581C34.1138 25.108 26.4557 25.397 17.7328 23.1038C9.00983 20.8107 2.52508 16.8036 3.24875 14.1537L3.24927 14.1519L7.27177 15.2093L7.27125 15.2112C6.77065 17.0444 12.2497 19.4986 18.2842 21.085C24.3186 22.6714 30.3389 23.2402 30.8396 21.4071L30.8401 21.4052L34.838 22.4562L34.8375 22.4581Z" fill="#655993"/>
<path d="M18.8854 8.81592C24.3834 8.81592 28.8403 13.199 28.8405 18.606C28.8405 24.0131 24.3835 28.397 18.8854 28.397C13.3874 28.3969 8.93036 24.0131 8.93036 18.606C8.9306 13.1991 13.3875 8.81596 18.8854 8.81592ZM13.9421 13.1606C13.6096 13.0732 13.2675 13.2672 13.1784 13.5933C13.0894 13.9192 13.2864 14.2548 13.6188 14.3423C13.9514 14.4297 14.2935 14.2357 14.3825 13.9097C14.4715 13.5838 14.2744 13.2482 13.9421 13.1606ZM17.1306 10.9438C16.4106 10.7546 15.6702 11.174 15.4772 11.8804C15.2843 12.5866 15.7116 13.313 16.4313 13.5024C17.1513 13.6917 17.8917 13.2723 18.0847 12.5659C18.2776 11.8595 17.8505 11.1332 17.1306 10.9438Z" fill="#655993"/>
</svg>
