<svg width="29" height="25" viewBox="0 0 29 25" fill="none" xmlns="http://www.w3.org/2000/svg">
<mask id="path-1-inside-1_40000276_5551" fill="white">
<path fill-rule="evenodd" clip-rule="evenodd" d="M5.97229 9.73891C3.24564 14.1442 6.49215 19.7673 11.6705 19.6086C12.0411 19.5972 12.412 19.574 12.7827 19.5388L15.7729 24.718C19.0915 22.802 21.1642 19.5569 21.707 16.0433C25.425 13.219 27.7465 9.10705 28.4027 4.70988C28.5313 3.84869 28.0511 3.01704 27.241 2.69775C23.0916 1.06232 18.3529 1.02169 14.037 2.8471C10.7377 1.58799 6.91988 1.77078 3.62325 3.6741L6.58881 8.8106C6.37298 9.11404 6.16742 9.42366 5.97229 9.73891ZM20.3615 8.04208C21.0296 9.19916 22.5091 9.59561 23.6662 8.92757C24.8233 8.25953 25.2197 6.77998 24.5517 5.6229C23.8837 4.46582 22.4041 4.06937 21.247 4.73741C20.0899 5.40545 19.6935 6.885 20.3615 8.04208ZM4.76618 17.0158C4.17136 15.9856 2.87756 15.6542 1.85757 16.2431C0.469156 17.0447 0.0639018 19.7307 0.0639018 19.7307C0.0639018 19.7307 2.63196 20.7 3.98108 19.9211C5.00107 19.3322 5.36101 18.0461 4.76618 17.0158Z"/>
</mask>
<path d="M11.6705 19.6086L11.7012 20.6081L11.7012 20.6081L11.6705 19.6086ZM5.97229 9.73891L5.12199 9.21261L5.12199 9.21261L5.97229 9.73891ZM12.7827 19.5388L13.6488 19.0388L13.3276 18.4826L12.6882 18.5433L12.7827 19.5388ZM15.7729 24.718L14.9069 25.218L15.4069 26.084L16.2729 25.584L15.7729 24.718ZM21.707 16.0433L21.1021 15.2469L20.7804 15.4913L20.7187 15.8906L21.707 16.0433ZM28.4027 4.70988L29.3918 4.85749L29.3918 4.85749L28.4027 4.70988ZM27.241 2.69775L26.8743 3.6281L26.8743 3.6281L27.241 2.69775ZM14.037 2.8471L13.6804 3.78138L14.0562 3.92476L14.4265 3.76811L14.037 2.8471ZM3.62325 3.6741L3.12325 2.80807L2.25722 3.30807L2.75722 4.1741L3.62325 3.6741ZM6.58881 8.8106L7.40369 9.39024L7.77599 8.86685L7.45484 8.3106L6.58881 8.8106ZM0.0639018 19.7307L-0.924907 19.5815L-1.0455 20.3808L-0.289242 20.6663L0.0639018 19.7307ZM11.6399 18.609C7.25842 18.7433 4.51555 13.9925 6.82259 10.2652L5.12199 9.21261C1.97573 14.2958 5.72588 20.7912 11.7012 20.6081L11.6399 18.609ZM12.6882 18.5433C12.3388 18.5765 11.9892 18.5983 11.6399 18.609L11.7012 20.6081C12.093 20.5961 12.4852 20.5715 12.8773 20.5343L12.6882 18.5433ZM16.639 24.218L13.6488 19.0388L11.9167 20.0388L14.9069 25.218L16.639 24.218ZM20.7187 15.8906C20.2202 19.1176 18.318 22.0939 15.2729 23.8519L16.2729 25.584C19.865 23.5101 22.1083 19.9961 22.6952 16.1959L20.7187 15.8906ZM27.4137 4.56227C26.7946 8.7103 24.6052 12.586 21.1021 15.2469L22.3118 16.8396C26.2447 13.8521 28.6983 9.50379 29.3918 4.85749L27.4137 4.56227ZM26.8743 3.6281C27.2514 3.7767 27.4735 4.16145 27.4137 4.56227L29.3918 4.85749C29.589 3.53593 28.8508 2.25737 27.6077 1.76741L26.8743 3.6281ZM14.4265 3.76811C18.493 2.04819 22.9601 2.08532 26.8743 3.6281L27.6077 1.76741C23.2232 0.0393146 18.2128 -0.00480435 13.6475 1.92609L14.4265 3.76811ZM4.12325 4.54012C7.1482 2.79367 10.6503 2.62498 13.6804 3.78138L14.3935 1.91283C10.8251 0.550994 6.69157 0.747901 3.12325 2.80807L4.12325 4.54012ZM7.45484 8.3106L4.48928 3.1741L2.75722 4.1741L5.72279 9.3106L7.45484 8.3106ZM6.82259 10.2652C7.00652 9.96805 7.20027 9.67621 7.40369 9.39024L5.77394 8.23097C5.54568 8.55186 5.32831 8.87928 5.12199 9.21261L6.82259 10.2652ZM23.1662 8.06154C22.4874 8.45344 21.6195 8.22087 21.2276 7.54208L19.4955 8.54208C20.4397 10.1775 22.5308 10.7378 24.1662 9.79359L23.1662 8.06154ZM23.6857 6.1229C24.0776 6.80168 23.845 7.66964 23.1662 8.06154L24.1662 9.79359C25.8016 8.84941 26.3619 6.75827 25.4177 5.1229L23.6857 6.1229ZM21.747 5.60344C22.4258 5.21154 23.2938 5.44411 23.6857 6.1229L25.4177 5.1229C24.4735 3.48753 22.3824 2.92721 20.747 3.87139L21.747 5.60344ZM21.2276 7.54208C20.8357 6.8633 21.0682 5.99534 21.747 5.60344L20.747 3.87139C19.1117 4.81557 18.5513 6.90671 19.4955 8.54208L21.2276 7.54208ZM2.35757 17.1091C2.90726 16.7918 3.58606 16.9718 3.90016 17.5158L5.63221 16.5158C4.75665 14.9993 2.84787 14.5167 1.35757 15.3771L2.35757 17.1091ZM0.0639018 19.7307C1.05271 19.8799 1.05268 19.8801 1.05265 19.8803C1.05264 19.8804 1.05261 19.8806 1.05259 19.8807C1.05256 19.8809 1.05253 19.8811 1.05251 19.8812C1.05247 19.8815 1.05245 19.8816 1.05246 19.8815C1.05247 19.8815 1.05258 19.8808 1.05278 19.8795C1.0532 19.8769 1.054 19.8718 1.05522 19.8645C1.05765 19.8499 1.06172 19.8262 1.06754 19.7946C1.0792 19.7311 1.09781 19.6363 1.12436 19.5187C1.17786 19.2818 1.2616 18.9614 1.38211 18.623C1.64715 17.8789 1.99672 17.3175 2.35757 17.1091L1.35757 15.3771C0.330007 15.9704 -0.217259 17.1527 -0.501947 17.952C-0.656304 18.3853 -0.760651 18.7865 -0.826526 19.0782C-0.859662 19.225 -0.883562 19.3463 -0.899484 19.4329C-0.907455 19.4762 -0.913455 19.511 -0.917636 19.5361C-0.919728 19.5487 -0.921366 19.5589 -0.922571 19.5665C-0.923174 19.5703 -0.923668 19.5734 -0.924057 19.576C-0.924251 19.5772 -0.924419 19.5783 -0.92456 19.5792C-0.924631 19.5797 -0.924695 19.5801 -0.924753 19.5805C-0.924782 19.5807 -0.924821 19.5809 -0.924835 19.581C-0.924872 19.5813 -0.924907 19.5815 0.0639018 19.7307ZM3.48108 19.0551C3.33358 19.1403 3.09689 19.2062 2.75656 19.2209C2.42356 19.2354 2.05391 19.1982 1.69261 19.1336C1.33496 19.0697 1.01032 18.9833 0.774109 18.9123C0.656855 18.8771 0.563514 18.8463 0.501269 18.8249C0.470196 18.8143 0.447021 18.806 0.43265 18.8008C0.425468 18.7982 0.4205 18.7964 0.417858 18.7954C0.416537 18.7949 0.4158 18.7947 0.415659 18.7946C0.415589 18.7946 0.415668 18.7946 0.415898 18.7947C0.416014 18.7947 0.416167 18.7948 0.416358 18.7949C0.416453 18.7949 0.416625 18.795 0.416673 18.795C0.416854 18.7951 0.417045 18.7951 0.0639018 19.7307C-0.289242 20.6663 -0.289031 20.6663 -0.288811 20.6664C-0.288724 20.6665 -0.288493 20.6666 -0.28832 20.6666C-0.287972 20.6667 -0.287585 20.6669 -0.287158 20.6671C-0.286304 20.6674 -0.285292 20.6678 -0.284123 20.6682C-0.281784 20.6691 -0.278818 20.6702 -0.275238 20.6715C-0.26808 20.6741 -0.258464 20.6777 -0.246507 20.682C-0.222601 20.6906 -0.189286 20.7024 -0.147504 20.7168C-0.064038 20.7454 0.05379 20.7842 0.198371 20.8277C0.485832 20.9141 0.887529 21.0214 1.34053 21.1024C1.78989 21.1828 2.31521 21.2419 2.84316 21.219C3.36378 21.1965 3.95402 21.0915 4.48108 20.7872L3.48108 19.0551ZM3.90016 17.5158C4.21425 18.0599 4.03077 18.7377 3.48108 19.0551L4.48108 20.7872C5.97137 19.9267 6.50777 18.0324 5.63221 16.5158L3.90016 17.5158Z" fill="#7F6D83" mask="url(#path-1-inside-1_40000276_5551)"/>
</svg>