<svg width="35" height="35" viewBox="0 0 35 35" fill="none" xmlns="http://www.w3.org/2000/svg">
<g clip-path="url(#clip0_40001907_16029)">
<path d="M5.59738 21.0216C6.52515 20.4619 7.70197 20.7768 8.24301 21.756C8.78406 22.7353 8.45666 23.9576 7.52889 24.5174C6.30175 25.2577 3.96588 24.3364 3.96588 24.3364C3.96588 24.3364 4.3345 21.7835 5.59738 21.0216Z" fill="#C0B9DB"/>
<mask id="mask0_40001907_16029" style="mask-type:alpha" maskUnits="userSpaceOnUse" x="7" y="6" width="23" height="23">
<path fill-rule="evenodd" clip-rule="evenodd" d="M16.6826 8.28919C16.3292 8.14818 15.9683 8.02598 15.6015 7.92327C14.1997 7.53079 12.7376 7.43065 11.2988 7.62859C10.1873 7.78149 9.10644 8.10995 8.0928 8.60102C7.5975 8.84098 7.43216 9.46875 7.69926 9.95215L9.91444 13.9613C6.97173 18.5162 10.2961 24.5328 15.5426 24.1473L17.7832 28.2026C18.0503 28.686 18.6533 28.8502 19.0998 28.522C20.0136 27.8503 20.8263 27.0364 21.5087 26.1071C22.3922 24.904 23.0402 23.5309 23.4159 22.0661C23.5205 21.6582 23.6034 21.2454 23.6644 20.8296C26.9879 18.1925 29.0849 14.3734 29.7237 10.2766C29.8724 9.32234 29.3663 8.40636 28.5011 8.06387C24.7725 6.58806 20.5415 6.58152 16.6826 8.28919ZM25.4482 14.0652C24.3958 14.7001 23.05 14.3233 22.4424 13.2236C21.8347 12.1239 22.1953 10.7177 23.2478 10.0827C24.3002 9.44779 25.646 9.82459 26.2537 10.9243C26.8613 12.0241 26.5007 13.4303 25.4482 14.0652Z" fill="#C0B9DB"/>
</mask>
<g mask="url(#mask0_40001907_16029)">
<rect x="7.03125" y="5.1272" width="23.0703" height="24.1065" fill="#C0B9DB"/>
</g>
</g>
<defs>
<clipPath id="clip0_40001907_16029">
<rect width="35" height="35" fill="white"/>
</clipPath>
</defs>
</svg>