<svg width="11" height="11" viewBox="0 0 11 11" fill="none" xmlns="http://www.w3.org/2000/svg">
<path d="M5.11387 6.68521C4.92893 6.68521 4.83244 6.64648 4.8244 6.4838L4.79223 6.10423C4.77615 5.84085 4.85656 5.65493 5.04954 5.53099L5.95817 4.95C6.25569 4.76408 6.27177 4.7331 6.27177 4.43099V3.91197C6.27177 3.69507 6.20744 3.6331 5.98229 3.6331H5.01738C4.79223 3.6331 4.72791 3.69507 4.72791 3.91197V4.34577C4.72791 4.5007 4.58317 4.6169 4.42235 4.6169H3.97206C3.81124 4.6169 3.6665 4.5007 3.6665 4.34577V3.91197C3.6665 3.13732 4.06855 2.75 4.87264 2.75H6.12703C6.93112 2.75 7.33317 3.13732 7.33317 3.91197V4.63239C7.33317 4.98873 7.20452 5.24437 6.85071 5.46127L5.94209 6.01901C5.8456 6.08099 5.83756 6.08873 5.82952 6.28239L5.82147 6.4838C5.81343 6.65423 5.71694 6.68521 5.532 6.68521H5.11387ZM4.77615 8.01761V7.41338C4.77615 7.28944 4.88069 7.19648 5.01738 7.19648H5.62849C5.76519 7.19648 5.86972 7.28944 5.86972 7.41338V8.01761C5.86972 8.1493 5.76519 8.25 5.62849 8.25H5.01738C4.88069 8.25 4.77615 8.1493 4.77615 8.01761Z" fill="#858585"/>
<circle cx="5.5" cy="5.5" r="5" stroke="#858585"/>
</svg>
