<svg width="32" height="32" viewBox="0 0 32 32" fill="none" xmlns="http://www.w3.org/2000/svg">
<g clip-path="url(#clip0_40002823_23873)">
<rect width="32" height="32" rx="5" fill="#F8F8FA"/>
<path d="M20.5824 15.434L22.675 12.5171L23.7213 19.4447L20.9312 21.997H17.4436L19.5362 19.4447L20.5824 15.434Z" fill="#E4D0E5"/>
<path d="M20.5838 15.4334L15.0036 9.96422L17.7937 9.59961L22.6763 12.5165L20.5838 15.4334Z" fill="#C0B9DB"/>
<path d="M14.6551 9.96422L11.1675 13.6104M14.6551 9.96422L20.584 15.4334M14.6551 9.96422L17.6119 9.62075C17.7299 9.60704 17.8492 9.63264 17.9512 9.69358L22.6766 12.5165M11.1675 13.6104L8.91596 14.9554C8.79432 15.0281 8.70611 15.1456 8.67034 15.2827L7.72973 18.8884C7.69754 19.0118 7.71006 19.1427 7.7651 19.2578L9.07491 21.9965M11.1675 13.6104L9.07491 21.9965M9.07491 21.9965H17.4452M17.4452 21.9965L19.4627 19.5357C19.5121 19.4754 19.5479 19.4051 19.5676 19.3296L20.584 15.4334M17.4452 21.9965H20.723C20.8579 21.9965 20.988 21.9459 21.0875 21.8549L23.5103 19.6386C23.6432 19.5171 23.7067 19.3374 23.6798 19.1594L22.6766 12.5165M20.584 15.4334L22.6766 12.5165" stroke="#8B6193" stroke-width="1.52"/>
<path d="M0 -1.89453H11.7895V6.51716C11.7895 8.38265 10.2772 9.89494 8.4117 9.89494H0V-1.89453Z" fill="#BEAADD"/>
<path d="M6.19279 8.06917C5.18978 8.06917 4.45654 7.47428 4.42887 6.6442H5.30737C5.33504 7.05233 5.7155 7.34285 6.19279 7.34285C6.75309 7.34285 7.1543 6.93473 7.1543 6.38135C7.1543 5.80721 6.73926 5.39909 6.16512 5.39909C5.77775 5.39217 5.49414 5.53052 5.33504 5.82796H4.49805L4.80241 2.99186H7.76302V3.74585H5.54256L5.39038 5.07397H5.4388C5.63249 4.85262 5.99911 4.69352 6.40723 4.69352C7.34107 4.69352 8.02588 5.39217 8.02588 6.35368C8.02588 7.35669 7.27189 8.06917 6.19279 8.06917Z" fill="white"/>
</g>
<defs>
<clipPath id="clip0_40002823_23873">
<rect width="32" height="32" rx="5" fill="white"/>
</clipPath>
</defs>
</svg>
