<svg width="32" height="32" viewBox="0 0 32 32" fill="none" xmlns="http://www.w3.org/2000/svg">
<g clip-path="url(#clip0_40002126_1757)">
<rect width="32" height="32" rx="5" fill="#F8F8FA"/>
<path d="M20.5824 15.4341L22.675 12.5172L23.7213 19.4448L20.9312 21.9971H17.4436L19.5362 19.4448L20.5824 15.4341Z" fill="#E4D0E5"/>
<path d="M20.5838 15.4335L15.0037 9.96428L17.7937 9.59967L22.6764 12.5166L20.5838 15.4335Z" fill="#C0B9DB"/>
<path d="M14.6551 9.96427L11.1675 13.6104M14.6551 9.96427L20.5841 15.4335M14.6551 9.96427L17.612 9.6208C17.73 9.60709 17.8493 9.63268 17.9513 9.69363L22.6766 12.5166M11.1675 13.6104L8.91602 14.9555C8.79438 15.0281 8.70617 15.1457 8.6704 15.2828L7.7298 18.8885C7.6976 19.0119 7.71012 19.1427 7.76516 19.2578L9.07497 21.9965M11.1675 13.6104L9.07497 21.9965M9.07497 21.9965H17.4452M17.4452 21.9965L19.4627 19.5358C19.5122 19.4754 19.548 19.4051 19.5677 19.3297L20.5841 15.4335M17.4452 21.9965H20.7231C20.858 21.9965 20.988 21.946 21.0876 21.8549L23.5104 19.6386C23.6432 19.5171 23.7068 19.3374 23.6799 19.1594L22.6766 12.5166M20.5841 15.4335L22.6766 12.5166" stroke="#8B6193" stroke-width="1.52"/>
<path d="M0 -1.89474H11.7895V6.51695C11.7895 8.38245 10.2772 9.89474 8.4117 9.89474H0V-1.89474Z" fill="#BEAADD"/>
<path d="M4.44873 2.99186V8H3.54256V3.87036H3.51489L2.34587 4.61743V3.79427L3.58407 2.99186H4.44873ZM7.37144 8.06917C6.16782 8.06917 5.44842 7.13533 5.44842 5.49593C5.44842 3.86344 6.16782 2.92269 7.37144 2.92269C8.56814 2.92269 9.29445 3.86344 9.29445 5.49593C9.29445 7.13533 8.57505 8.06917 7.37144 8.06917ZM7.37144 7.31519C8.00091 7.31519 8.38828 6.69954 8.38828 5.49593C8.38828 4.29923 7.994 3.66976 7.37144 3.66976C6.74888 3.66976 6.35459 4.29923 6.35459 5.49593C6.35459 6.69954 6.74196 7.31519 7.37144 7.31519Z" fill="white"/>
</g>
<defs>
<clipPath id="clip0_40002126_1757">
<rect width="32" height="32" rx="5" fill="white"/>
</clipPath>
</defs>
</svg>
