<svg xmlns="http://www.w3.org/2000/svg" width="18" height="14" viewBox="0 0 18 14" fill="none">
  <path d="M7.70281 1.10729L4.2152 4.75342M7.70281 1.10729L13.6317 6.57649M7.70281 1.10729L10.6596 0.763818C10.7777 0.750107 10.8969 0.775705 10.999 0.836647L15.7243 3.65958M4.2152 4.75342L1.96369 6.09848C1.84205 6.17115 1.75384 6.28871 1.71807 6.42581L0.777464 10.0315C0.745265 10.1549 0.757793 10.2858 0.812831 10.4008L2.12264 13.1395M4.2152 4.75342L2.12264 13.1395M2.12264 13.1395H10.4929M10.4929 13.1395L12.5104 10.6788C12.5598 10.6185 12.5956 10.5482 12.6153 10.4727L13.6317 6.57649M10.4929 13.1395H13.7707C13.9057 13.1395 14.0357 13.089 14.1353 12.9979L16.5581 10.7816C16.6909 10.6601 16.7545 10.4804 16.7276 10.3025L15.7243 3.65958M13.6317 6.57649L15.7243 3.65958" stroke="#8B6193" stroke-width="1.52"/>
</svg>