<svg width="23" height="17" viewBox="0 0 23 17" fill="none" xmlns="http://www.w3.org/2000/svg">
<mask id="mask0_3_1387" style="mask-type:alpha" maskUnits="userSpaceOnUse" x="4" y="1" width="15" height="14">
<circle cx="11.3494" cy="8.15833" r="6.66125" transform="rotate(15 11.3494 8.15833)" fill="#C0B9DB"/>
</mask>
<g mask="url(#mask0_3_1387)">
<rect x="4.64746" y="1.46289" width="13.3919" height="13.3919" fill="#C0B9DB"/>
</g>
<path fill-rule="evenodd" clip-rule="evenodd" d="M18.6977 8.52515C19.1963 9.02739 19.4259 9.51001 19.3141 9.92723C19.2023 10.3445 18.7621 10.6476 18.0791 10.8333C17.874 11.3009 17.6268 11.7401 17.3438 12.147C19.9179 12.1916 21.7106 11.6808 21.9884 10.6438C22.2663 9.60682 20.9692 8.26816 18.7178 7.0198C18.7595 7.51372 18.7539 8.01762 18.6977 8.52515ZM5.55944 3.48429C2.96455 3.43382 1.15522 3.94452 0.875961 4.98674C0.596693 6.02898 1.90834 7.37597 4.18093 8.62974C4.13892 8.13973 4.14337 7.63985 4.19769 7.1363C3.67765 6.62297 3.43615 6.12908 3.55024 5.70331C3.66432 5.27756 4.12037 4.97059 4.82735 4.78605C5.03204 4.3228 5.27809 3.88766 5.55944 3.48429Z" fill="#8B6193"/>
<path fill-rule="evenodd" clip-rule="evenodd" d="M0.876465 4.98633C0.39281 6.79147 4.72688 9.5212 10.5569 11.0833C16.3869 12.6455 21.5052 12.4485 21.9889 10.6434L19.3169 9.92742C18.9822 11.1762 14.9585 10.7889 10.9254 9.70827C6.89223 8.6276 3.23044 6.95549 3.565 5.70672L0.876465 4.98633Z" fill="#8B6193"/>
</svg>
