<svg width="17" height="13" viewBox="0 0 17 13" fill="none" xmlns="http://www.w3.org/2000/svg">
<path d="M7.1347 11L7.93255 7.96913C7.98599 7.83617 8.01653 7.69539 8.01653 7.54679C8.01653 7.21851 8.28265 6.95239 8.61093 6.95239L12.5974 6.95239C13.2311 6.95239 13.7427 6.42838 13.7427 5.77923C13.7427 5.13008 13.2311 4.60607 12.5974 4.60607L5.694 4.60607C5.03858 4.60607 4.56084 3.98437 4.72741 3.35046C5.2659 1.30106 5.26035 1.32245 5.26035 1.23573C5.26035 0.993276 5.1611 0.774286 5.0084 0.617864C4.67526 0.280862 4.12853 0.289078 3.80566 0.63594L0.335865 4.36361C0.129723 4.57478 -6.98312e-05 4.87198 -6.98452e-05 5.19265L-7.00773e-05 10.5032C-7.0103e-05 11.0897 0.419848 11.5434 0.977192 11.6294L5.00076 12.216C5.05421 12.2238 5.10765 12.2316 5.15346 12.2316C5.62682 12.2316 6.6347 12.5 7.1347 11Z" fill="#C0B9DB"/>
<path d="M10.5975 2.09687C9.92441 2.51901 10.3444 3.38357 11.139 3.38357L12.7899 3.38357C14.081 3.38357 15.1289 4.45697 15.1289 5.77954C15.1289 7.10212 14.081 8.17551 12.7899 8.17551L11.139 8.17551C10.3444 8.17551 9.92441 9.04007 10.5975 9.46222C11.2358 9.8625 11.9859 10.0923 12.7899 10.0923C15.1195 10.0923 17 8.16593 17 5.77954C17 3.39316 15.1195 1.4668 12.7899 1.4668C11.9859 1.4668 11.2358 1.69658 10.5975 2.09687Z" fill="#8B6193"/>
</svg>
