<svg width="18" height="18" viewBox="0 0 18 18" fill="none" xmlns="http://www.w3.org/2000/svg">
<g filter="url(#filter0_d_3_1355)">
<path fill-rule="evenodd" clip-rule="evenodd" d="M9.125 2.4375C5.74226 2.4375 3 5.17976 3 8.5625C3 11.9452 5.74226 14.6875 9.125 14.6875C12.5077 14.6875 15.25 11.9452 15.25 8.5625C15.25 5.17976 12.5077 2.4375 9.125 2.4375Z" fill="white"/>
<path fill-rule="evenodd" clip-rule="evenodd" d="M9.125 2.4375C5.74226 2.4375 3 5.17976 3 8.5625C3 11.9452 5.74226 14.6875 9.125 14.6875C12.5077 14.6875 15.25 11.9452 15.25 8.5625C15.25 5.17976 12.5077 2.4375 9.125 2.4375Z" fill="white"/>
<path fill-rule="evenodd" clip-rule="evenodd" d="M6.75586 7.25L6.15625 7.85948L9 10.75L11.8437 7.85948L11.2441 7.25L9 9.53105L6.75586 7.25Z" fill="#B5B5B5"/>
</g>
<defs>
<filter id="filter0_d_3_1355" x="0" y="0" width="18" height="18" filterUnits="userSpaceOnUse" color-interpolation-filters="sRGB">
<feFlood flood-opacity="0" result="BackgroundImageFix"/>
<feColorMatrix in="SourceAlpha" type="matrix" values="0 0 0 0 0 0 0 0 0 0 0 0 0 0 0 0 0 0 127 0" result="hardAlpha"/>
<feOffset/>
<feGaussianBlur stdDeviation="1"/>
<feComposite in2="hardAlpha" operator="out"/>
<feColorMatrix type="matrix" values="0 0 0 0 0 0 0 0 0 0 0 0 0 0 0 0 0 0 0.25 0"/>
<feBlend mode="normal" in2="BackgroundImageFix" result="effect1_dropShadow_3_1355"/>
<feBlend mode="normal" in="SourceGraphic" in2="effect1_dropShadow_3_1355" result="shape"/>
</filter>
</defs>
</svg>
