<svg width="42" height="32" viewBox="0 0 42 32" fill="none" xmlns="http://www.w3.org/2000/svg">
<g filter="url(#filter0_d_40001143_17608)">
<path fill-rule="evenodd" clip-rule="evenodd" d="M17.9823 13.8393C15.6212 17.5435 18.3875 22.3348 22.776 22.1421C25.0165 22.0438 27.2671 21.4198 29.3436 20.221C33.2968 17.9386 35.761 14.0677 36.3954 9.88017C36.506 9.15023 36.0987 8.44475 35.4112 8.17555C31.4675 6.63121 26.8831 6.82981 22.93 9.11216C20.8535 10.311 19.1878 11.9482 17.9823 13.8393ZM29.7612 12.5997C30.3127 13.555 31.5343 13.8823 32.4896 13.3307C33.4449 12.7792 33.7722 11.5576 33.2206 10.6023C32.6691 9.64701 31.4475 9.3197 30.4922 9.87125C29.5369 10.4228 29.2096 11.6444 29.7612 12.5997Z" fill="#C0B9DB"/>
<path fill-rule="evenodd" clip-rule="evenodd" d="M25.9784 26.3674L15.9473 8.99309C20.7449 6.22443 26.8787 7.86845 29.6484 12.6657C32.418 17.4629 30.7749 23.597 25.9784 26.3674Z" fill="#C0B9DB"/>
<path d="M14.4871 19.3679C15.3292 18.8816 16.3974 19.1552 16.8885 20.0058C17.3796 20.8565 17.0825 21.9183 16.2403 22.4045C15.1265 23.0476 13.0062 22.2473 13.0062 22.2473C13.0062 22.2473 13.3408 20.0297 14.4871 19.3679Z" fill="#C0B9DB"/>
</g>
<g filter="url(#filter1_d_40001143_17608)">
<circle cx="5" cy="26.3691" r="1" fill="#C0B9DB"/>
</g>
<g filter="url(#filter2_d_40001143_17608)">
<circle cx="9" cy="24.3691" r="1" fill="#C0B9DB"/>
</g>
<defs>
<filter id="filter0_d_40001143_17608" x="9.00586" y="3.17773" width="31.4082" height="27.1895" filterUnits="userSpaceOnUse" color-interpolation-filters="sRGB">
<feFlood flood-opacity="0" result="BackgroundImageFix"/>
<feColorMatrix in="SourceAlpha" type="matrix" values="0 0 0 0 0 0 0 0 0 0 0 0 0 0 0 0 0 0 127 0" result="hardAlpha"/>
<feOffset/>
<feGaussianBlur stdDeviation="2"/>
<feComposite in2="hardAlpha" operator="out"/>
<feColorMatrix type="matrix" values="0 0 0 0 1 0 0 0 0 1 0 0 0 0 1 0 0 0 0.6 0"/>
<feBlend mode="normal" in2="BackgroundImageFix" result="effect1_dropShadow_40001143_17608"/>
<feBlend mode="normal" in="SourceGraphic" in2="effect1_dropShadow_40001143_17608" result="shape"/>
</filter>
<filter id="filter1_d_40001143_17608" x="0" y="21.3691" width="10" height="10" filterUnits="userSpaceOnUse" color-interpolation-filters="sRGB">
<feFlood flood-opacity="0" result="BackgroundImageFix"/>
<feColorMatrix in="SourceAlpha" type="matrix" values="0 0 0 0 0 0 0 0 0 0 0 0 0 0 0 0 0 0 127 0" result="hardAlpha"/>
<feOffset/>
<feGaussianBlur stdDeviation="2"/>
<feComposite in2="hardAlpha" operator="out"/>
<feColorMatrix type="matrix" values="0 0 0 0 1 0 0 0 0 1 0 0 0 0 1 0 0 0 0.6 0"/>
<feBlend mode="normal" in2="BackgroundImageFix" result="effect1_dropShadow_40001143_17608"/>
<feBlend mode="normal" in="SourceGraphic" in2="effect1_dropShadow_40001143_17608" result="shape"/>
</filter>
<filter id="filter2_d_40001143_17608" x="4" y="19.3691" width="10" height="10" filterUnits="userSpaceOnUse" color-interpolation-filters="sRGB">
<feFlood flood-opacity="0" result="BackgroundImageFix"/>
<feColorMatrix in="SourceAlpha" type="matrix" values="0 0 0 0 0 0 0 0 0 0 0 0 0 0 0 0 0 0 127 0" result="hardAlpha"/>
<feOffset/>
<feGaussianBlur stdDeviation="2"/>
<feComposite in2="hardAlpha" operator="out"/>
<feColorMatrix type="matrix" values="0 0 0 0 1 0 0 0 0 1 0 0 0 0 1 0 0 0 0.6 0"/>
<feBlend mode="normal" in2="BackgroundImageFix" result="effect1_dropShadow_40001143_17608"/>
<feBlend mode="normal" in="SourceGraphic" in2="effect1_dropShadow_40001143_17608" result="shape"/>
</filter>
</defs>
</svg>
