<svg width="18" height="18" viewBox="0 0 18 18" fill="none" xmlns="http://www.w3.org/2000/svg">
<g filter="url(#filter0_d_3_1158)">
<path fill-rule="evenodd" clip-rule="evenodd" d="M8.875 15.5625C12.2577 15.5625 15 12.8202 15 9.4375C15 6.05476 12.2577 3.3125 8.875 3.3125C5.49226 3.3125 2.75 6.05476 2.75 9.4375C2.75 12.8202 5.49226 15.5625 8.875 15.5625Z" fill="white"/>
<path fill-rule="evenodd" clip-rule="evenodd" d="M8.875 15.5625C12.2577 15.5625 15 12.8202 15 9.4375C15 6.05476 12.2577 3.3125 8.875 3.3125C5.49226 3.3125 2.75 6.05476 2.75 9.4375C2.75 12.8202 5.49226 15.5625 8.875 15.5625Z" fill="white"/>
<path fill-rule="evenodd" clip-rule="evenodd" d="M11.2441 10.75L11.8438 10.1405L9 7.25L6.15625 10.1405L6.75586 10.75L9 8.46895L11.2441 10.75Z" fill="#B5B5B5"/>
</g>
<defs>
<filter id="filter0_d_3_1158" x="0" y="0" width="18" height="18" filterUnits="userSpaceOnUse" color-interpolation-filters="sRGB">
<feFlood flood-opacity="0" result="BackgroundImageFix"/>
<feColorMatrix in="SourceAlpha" type="matrix" values="0 0 0 0 0 0 0 0 0 0 0 0 0 0 0 0 0 0 127 0" result="hardAlpha"/>
<feOffset/>
<feGaussianBlur stdDeviation="1"/>
<feComposite in2="hardAlpha" operator="out"/>
<feColorMatrix type="matrix" values="0 0 0 0 0 0 0 0 0 0 0 0 0 0 0 0 0 0 0.25 0"/>
<feBlend mode="normal" in2="BackgroundImageFix" result="effect1_dropShadow_3_1158"/>
<feBlend mode="normal" in="SourceGraphic" in2="effect1_dropShadow_3_1158" result="shape"/>
</filter>
</defs>
</svg>
